Exo-Italic.ufo
<glyph name="exclam" format="1">
  <advance width="266"/>
  <unicode hex="0021"/>
  <note>
    GF Latin Plus glyph
  </note>
  <outline>
    <contour>
      <point x="133" y="199" type="line"/>
      <point x="191" y="199" type="line"/>
      <point x="288" y="735" type="line"/>
      <point x="208" y="735" type="line"/>
    </contour>
    <component base="period" xOffset="30"/>
  </outline>
</glyph>
<glyph name="percent" format="1">
  <advance width="959"/>
  <unicode hex="0025"/>
  <note>
    GF Latin Plus glyph
  </note>
  <outline>
    <contour>
      <point x="623" y="141" type="curve" smooth="yes"/>
      <point x="640" y="248" type="line" smooth="yes"/>
      <point x="651" y="319"/>
      <point x="683" y="335"/>
      <point x="743" y="335" type="curve" smooth="yes"/>
      <point x="828" y="335" type="line" smooth="yes"/>
      <point x="882" y="335"/>
      <point x="904" y="319"/>
      <point x="904" y="278" type="curve" smooth="yes"/>
      <point x="904" y="269"/>
      <point x="903" y="259"/>
      <point x="901" y="248" type="curve" smooth="yes"/>
      <point x="884" y="141" type="line" smooth="yes"/>
      <point x="873" y="74"/>
      <point x="844" y="54"/>
      <point x="781" y="54" type="curve" smooth="yes"/>
      <point x="697" y="54" type="line" smooth="yes"/>
      <point x="644" y="54"/>
      <point x="621" y="69"/>
      <point x="621" y="112" type="curve" smooth="yes"/>
      <point x="621" y="121"/>
      <point x="622" y="131"/>
    </contour>
    <contour>
      <point x="570" y="131" type="line" smooth="yes"/>
      <point x="568" y="118"/>
      <point x="567" y="105"/>
      <point x="567" y="93" type="curve" smooth="yes"/>
      <point x="567" y="34"/>
      <point x="598" y="3"/>
      <point x="680" y="3" type="curve" smooth="yes"/>
      <point x="781" y="3" type="line" smooth="yes"/>
      <point x="882" y="3"/>
      <point x="921" y="46"/>
      <point x="934" y="131" type="curve" smooth="yes"/>
      <point x="954" y="258" type="line" smooth="yes"/>
      <point x="957" y="271"/>
      <point x="958" y="284"/>
      <point x="958" y="296" type="curve" smooth="yes"/>
      <point x="958" y="355"/>
      <point x="926" y="386"/>
      <point x="844" y="386" type="curve" smooth="yes"/>
      <point x="743" y="386" type="line" smooth="yes"/>
      <point x="642" y="386"/>
      <point x="603" y="343"/>
      <point x="590" y="258" type="curve" smooth="yes"/>
    </contour>
    <contour>
      <point x="226" y="0" type="line"/>
      <point x="282" y="0" type="line"/>
      <point x="839" y="732" type="line"/>
      <point x="785" y="732" type="line"/>
    </contour>
    <contour>
      <point x="175" y="487" type="curve" smooth="yes"/>
      <point x="192" y="594" type="line" smooth="yes"/>
      <point x="203" y="665"/>
      <point x="234" y="681"/>
      <point x="294" y="681" type="curve" smooth="yes"/>
      <point x="379" y="681" type="line" smooth="yes"/>
      <point x="434" y="681"/>
      <point x="455" y="665"/>
      <point x="455" y="624" type="curve" smooth="yes"/>
      <point x="455" y="615"/>
      <point x="454" y="605"/>
      <point x="452" y="594" type="curve" smooth="yes"/>
      <point x="435" y="487" type="line" smooth="yes"/>
      <point x="425" y="420"/>
      <point x="396" y="400"/>
      <point x="333" y="400" type="curve" smooth="yes"/>
      <point x="248" y="400" type="line" smooth="yes"/>
      <point x="196" y="400"/>
      <point x="172" y="415"/>
      <point x="172" y="458" type="curve" smooth="yes"/>
      <point x="172" y="467"/>
      <point x="173" y="477"/>
    </contour>
    <contour>
      <point x="122" y="477" type="line" smooth="yes"/>
      <point x="120" y="464"/>
      <point x="119" y="451"/>
      <point x="119" y="439" type="curve" smooth="yes"/>
      <point x="119" y="380"/>
      <point x="150" y="349"/>
      <point x="232" y="349" type="curve" smooth="yes"/>
      <point x="333" y="349" type="line" smooth="yes"/>
      <point x="434" y="349"/>
      <point x="472" y="392"/>
      <point x="485" y="477" type="curve" smooth="yes"/>
      <point x="505" y="604" type="line" smooth="yes"/>
      <point x="507" y="617"/>
      <point x="509" y="630"/>
      <point x="509" y="642" type="curve" smooth="yes"/>
      <point x="509" y="701"/>
      <point x="478" y="732"/>
      <point x="396" y="732" type="curve" smooth="yes"/>
      <point x="295" y="732" type="line" smooth="yes"/>
      <point x="194" y="732"/>
      <point x="156" y="689"/>
      <point x="142" y="604" type="curve" smooth="yes"/>
    </contour>
  </outline>
</glyph>
<glyph name="asterisk" format="1">
  <advance width="462"/>
  <unicode hex="002A"/>
  <note>
    GF Latin Plus glyph
  </note>
  <outline>
    <contour>
      <point x="339" y="558" type="line"/>
      <point x="364" y="522" type="line"/>
      <point x="481" y="614" type="line"/>
      <point x="466" y="641" type="line"/>
    </contour>
    <contour>
      <point x="289" y="723" type="line"/>
      <point x="319" y="590" type="line"/>
      <point x="366" y="609" type="line"/>
      <point x="321" y="733" type="line"/>
    </contour>
    <contour>
      <point x="280" y="483" type="line"/>
      <point x="391" y="414" type="line"/>
      <point x="414" y="440" type="line"/>
      <point x="311" y="524" type="line"/>
    </contour>
    <contour>
      <point x="175" y="412" type="line"/>
      <point x="204" y="402" type="line"/>
      <point x="272" y="537" type="line"/>
      <point x="226" y="547" type="line"/>
    </contour>
    <contour>
      <point x="132" y="584" type="line"/>
      <point x="274" y="578" type="line"/>
      <point x="279" y="625" type="line"/>
      <point x="137" y="616" type="line"/>
    </contour>
  </outline>
</glyph>
<glyph name="period" format="1">
  <advance width="200"/>
  <unicode hex="002E"/>
  <note>
    GF Latin Plus glyph
  </note>
  <outline>
    <contour>
      <point x="64" y="15" type="line" smooth="yes"/>
      <point x="64" y="14"/>
      <point x="64" y="13"/>
      <point x="64" y="12" type="curve" smooth="yes"/>
      <point x="64" y="4"/>
      <point x="70" y="-1"/>
      <point x="78" y="-1" type="curve" smooth="yes"/>
      <point x="122" y="-1" type="line" smooth="yes"/>
      <point x="132" y="-1"/>
      <point x="139" y="4"/>
      <point x="141" y="15" type="curve" smooth="yes"/>
      <point x="154" y="95" type="line" smooth="yes"/>
      <point x="154" y="96"/>
      <point x="154" y="98"/>
      <point x="154" y="99" type="curve" smooth="yes"/>
      <point x="154" y="106"/>
      <point x="150" y="111"/>
      <point x="140" y="111" type="curve" smooth="yes"/>
      <point x="96" y="111" type="line" smooth="yes"/>
      <point x="85" y="111"/>
      <point x="79" y="105"/>
      <point x="77" y="95" type="curve" smooth="yes"/>
    </contour>
  </outline>
</glyph>
<glyph name="two" format="1">
  <advance width="593"/>
  <unicode hex="0032"/>
  <note>
    GF Latin Plus glyph
  </note>
  <outline>
    <contour>
      <point x="186" y="667" type="line"/>
      <point x="388" y="667" type="line" smooth="yes"/>
      <point x="492" y="667"/>
      <point x="524" y="629"/>
      <point x="524" y="572" type="curve" smooth="yes"/>
      <point x="524" y="507"/>
      <point x="478" y="424"/>
      <point x="365" y="326" type="curve" smooth="yes"/>
      <point x="64" y="65" type="line"/>
      <point x="54" y="0" type="line"/>
      <point x="545" y="0" type="line"/>
      <point x="557" y="73" type="line"/>
      <point x="177" y="73" type="line"/>
      <point x="423" y="289" type="line" smooth="yes"/>
      <point x="550" y="401"/>
      <point x="603" y="502"/>
      <point x="603" y="591" type="curve" smooth="yes"/>
      <point x="603" y="678"/>
      <point x="553" y="742"/>
      <point x="408" y="742" type="curve" smooth="yes"/>
      <point x="330" y="742"/>
      <point x="255" y="733"/>
      <point x="196" y="728" type="curve"/>
    </contour>
  </outline>
</glyph>
<glyph name="D" format="1">
  <advance width="674"/>
  <unicode hex="0044"/>
  <note>
    GF Latin Plus glyph
  </note>
  <outline>
    <contour>
      <point x="162" y="71" type="line"/>
      <point x="256" y="664" type="line"/>
      <point x="434" y="664" type="line" smooth="yes"/>
      <point x="564" y="664"/>
      <point x="603" y="602"/>
      <point x="603" y="479" type="curve" smooth="yes"/>
      <point x="603" y="450"/>
      <point x="599" y="412"/>
      <point x="592" y="368" type="curve" smooth="yes"/>
      <point x="566" y="199"/>
      <point x="498" y="71"/>
      <point x="345" y="71" type="curve" smooth="yes"/>
    </contour>
    <contour>
      <point x="72" y="0" type="line"/>
      <point x="339" y="0" type="line" smooth="yes"/>
      <point x="538" y="0"/>
      <point x="637" y="138"/>
      <point x="670" y="351" type="curve" smooth="yes"/>
      <point x="677" y="393"/>
      <point x="682" y="437"/>
      <point x="682" y="480" type="curve" smooth="yes"/>
      <point x="682" y="642"/>
      <point x="628" y="736"/>
      <point x="453" y="736" type="curve" smooth="yes"/>
      <point x="189" y="736" type="line"/>
    </contour>
    <contour>
      <point x="429" y="810" type="move" name="top"/>
    </contour>
    <contour>
      <point x="277" y="-150" type="move" name="bottom"/>
    </contour>
  </outline>
</glyph>
<glyph name="E" format="1">
  <advance width="578"/>
  <unicode hex="0045"/>
  <note>
    GF Latin Plus glyph
  </note>
  <outline>
    <contour>
      <point x="94" y="143" type="line" smooth="yes"/>
      <point x="74" y="17"/>
      <point x="159" y="-7"/>
      <point x="227" y="-6" type="curve" smooth="yes"/>
      <point x="264" y="-6"/>
      <point x="490" y="1"/>
      <point x="520" y="4" type="curve"/>
      <point x="530" y="68" type="line"/>
      <point x="256" y="68" type="line" smooth="yes"/>
      <point x="200" y="68"/>
      <point x="165" y="84"/>
      <point x="176" y="157" type="curve" smooth="yes"/>
      <point x="203" y="330" type="line"/>
      <point x="527" y="334" type="line"/>
      <point x="537" y="395" type="line"/>
      <point x="215" y="403" type="line"/>
      <point x="241" y="571" type="line" smooth="yes"/>
      <point x="252" y="638"/>
      <point x="287" y="663"/>
      <point x="342" y="663" type="curve" smooth="yes"/>
      <point x="623" y="663" type="line"/>
      <point x="634" y="727" type="line"/>
      <point x="599" y="730"/>
      <point x="367" y="736"/>
      <point x="334" y="736" type="curve" smooth="yes"/>
      <point x="256" y="736"/>
      <point x="183" y="702"/>
      <point x="165" y="590" type="curve" smooth="yes"/>
    </contour>
    <contour>
      <point x="429" y="810" type="move" name="top"/>
    </contour>
    <contour>
      <point x="510" y="4" type="move" name="ogonek"/>
    </contour>
    <contour>
      <point x="277" y="-150" type="move" name="bottom"/>
    </contour>
  </outline>
</glyph>
<glyph name="H" format="1">
  <advance width="666"/>
  <unicode hex="0048"/>
  <note>
    GF Latin Plus glyph
  </note>
  <outline>
    <contour>
      <point x="72" y="0" type="line"/>
      <point x="151" y="0" type="line"/>
      <point x="202" y="324" type="line"/>
      <point x="569" y="324" type="line"/>
      <point x="518" y="0" type="line"/>
      <point x="598" y="0" type="line"/>
      <point x="714" y="736" type="line"/>
      <point x="635" y="736" type="line"/>
      <point x="581" y="395" type="line"/>
      <point x="214" y="395" type="line"/>
      <point x="268" y="736" type="line"/>
      <point x="189" y="736" type="line"/>
    </contour>
    <contour>
      <point x="461" y="810" type="move" name="top"/>
    </contour>
    <contour>
      <point x="309" y="-150" type="move" name="bottom"/>
    </contour>
  </outline>
</glyph>
<glyph name="L" format="1">
  <advance width="524"/>
  <unicode hex="004C"/>
  <note>
    GF Latin Plus glyph
  </note>
  <outline>
    <contour>
      <point x="96" y="150" type="line" smooth="yes"/>
      <point x="94" y="136"/>
      <point x="92" y="124"/>
      <point x="92" y="110" type="curve" smooth="yes"/>
      <point x="92" y="28"/>
      <point x="143" y="0"/>
      <point x="221" y="0" type="curve" smooth="yes"/>
      <point x="500" y="0" type="line"/>
      <point x="511" y="71" type="line"/>
      <point x="249" y="71" type="line" smooth="yes"/>
      <point x="206" y="71"/>
      <point x="174" y="83"/>
      <point x="174" y="131" type="curve" smooth="yes"/>
      <point x="174" y="141"/>
      <point x="175" y="149"/>
      <point x="176" y="158" type="curve" smooth="yes"/>
      <point x="268" y="736" type="line"/>
      <point x="189" y="736" type="line"/>
    </contour>
    <contour>
      <point x="246" y="810" type="move" name="top"/>
    </contour>
    <contour>
      <point x="321" y="596" type="move" name="altcaron"/>
    </contour>
    <contour>
      <point x="407" y="400" type="move" name="dot"/>
    </contour>
    <contour>
      <point x="254" y="-150" type="move" name="bottom"/>
    </contour>
  </outline>
</glyph>
<glyph name="N" format="1">
  <advance width="668"/>
  <unicode hex="004E"/>
  <note>
    GF Latin Plus glyph
  </note>
  <outline>
    <contour>
      <point x="72" y="0" type="line"/>
      <point x="151" y="0" type="line"/>
      <point x="247" y="602" type="line"/>
      <point x="535" y="0" type="line"/>
      <point x="600" y="0" type="line"/>
      <point x="717" y="736" type="line"/>
      <point x="637" y="736" type="line"/>
      <point x="542" y="135" type="line"/>
      <point x="253" y="736" type="line"/>
      <point x="189" y="736" type="line"/>
    </contour>
    <contour>
      <point x="453" y="810" type="move" name="top"/>
    </contour>
    <contour>
      <point x="301" y="-150" type="move" name="bottom"/>
    </contour>
  </outline>
</glyph>
<glyph name="P" format="1">
  <advance width="600"/>
  <unicode hex="0050"/>
  <note>
    GF Latin Plus glyph
  </note>
  <outline>
    <contour>
      <point x="205" y="342" type="line"/>
      <point x="256" y="664" type="line"/>
      <point x="452" y="664" type="line" smooth="yes"/>
      <point x="518" y="664"/>
      <point x="556" y="636"/>
      <point x="556" y="560" type="curve" smooth="yes"/>
      <point x="556" y="547"/>
      <point x="553" y="522"/>
      <point x="550" y="503" type="curve" smooth="yes"/>
      <point x="531" y="381"/>
      <point x="467" y="342"/>
      <point x="394" y="342" type="curve" smooth="yes"/>
    </contour>
    <contour>
      <point x="72" y="0" type="line"/>
      <point x="151" y="0" type="line"/>
      <point x="196" y="282" type="line"/>
      <point x="254" y="276"/>
      <point x="335" y="271"/>
      <point x="402" y="271" type="curve" smooth="yes"/>
      <point x="496" y="271"/>
      <point x="601" y="316"/>
      <point x="629" y="496" type="curve" smooth="yes"/>
      <point x="632" y="518"/>
      <point x="636" y="549"/>
      <point x="636" y="567" type="curve" smooth="yes"/>
      <point x="636" y="697"/>
      <point x="562" y="736"/>
      <point x="468" y="736" type="curve" smooth="yes"/>
      <point x="189" y="736" type="line"/>
    </contour>
    <contour>
      <point x="406" y="810" type="move" name="top"/>
    </contour>
  </outline>
</glyph>
<glyph name="T" format="1">
  <advance width="605"/>
  <unicode hex="0054"/>
  <note>
    GF Latin Plus glyph
  </note>
  <outline>
    <contour>
      <point x="132" y="664" type="line"/>
      <point x="363" y="664" type="line"/>
      <point x="258" y="0" type="line"/>
      <point x="337" y="0" type="line"/>
      <point x="442" y="664" type="line"/>
      <point x="673" y="664" type="line"/>
      <point x="685" y="736" type="line"/>
      <point x="143" y="736" type="line"/>
    </contour>
    <contour>
      <point x="423" y="810" type="move" name="top"/>
    </contour>
    <contour>
      <point x="271" y="-150" type="move" name="bottom"/>
    </contour>
  </outline>
</glyph>
<glyph name="V" format="1">
  <advance width="676"/>
  <unicode hex="0056"/>
  <note>
    GF Latin Plus glyph
  </note>
  <outline>
    <contour>
      <point x="152" y="736" type="line"/>
      <point x="283" y="0" type="line"/>
      <point x="385" y="0" type="line"/>
      <point x="758" y="736" type="line"/>
      <point x="676" y="736" type="line"/>
      <point x="348" y="86" type="line"/>
      <point x="234" y="736" type="line"/>
    </contour>
  </outline>
</glyph>
<glyph name="X" format="1">
  <advance width="617"/>
  <unicode hex="0058"/>
  <note>
    GF Latin Plus glyph
  </note>
  <outline>
    <contour>
      <point x="35" y="0" type="line"/>
      <point x="125" y="0" type="line"/>
      <point x="366" y="316" type="line"/>
      <point x="334" y="389" type="line"/>
    </contour>
    <contour>
      <point x="365" y="411" type="line"/>
      <point x="397" y="342" type="line"/>
      <point x="704" y="736" type="line"/>
      <point x="614" y="736" type="line"/>
    </contour>
    <contour>
      <point x="337" y="338" type="line"/>
      <point x="496" y="0" type="line"/>
      <point x="583" y="0" type="line"/>
      <point x="396" y="392" type="line"/>
      <point x="236" y="736" type="line"/>
      <point x="148" y="736" type="line"/>
    </contour>
    <contour>
      <point x="438" y="810" type="move" name="top"/>
    </contour>
    <contour>
      <point x="286" y="-150" type="move" name="bottom"/>
    </contour>
  </outline>
</glyph>
<glyph name="bracketright" format="1">
  <advance width="333"/>
  <unicode hex="005D"/>
  <note>
    GF Latin Plus glyph
  </note>
  <outline>
    <contour>
      <point x="-1" y="-145" type="line"/>
      <point x="-11" y="-210" type="line"/>
      <point x="52" y="-210" type="line" smooth="yes"/>
      <point x="188" y="-210"/>
      <point x="225" y="-94"/>
      <point x="237" y="-22" type="curve" smooth="yes"/>
      <point x="345" y="660" type="line" smooth="yes"/>
      <point x="347" y="676"/>
      <point x="349" y="694"/>
      <point x="349" y="711" type="curve" smooth="yes"/>
      <point x="349" y="781"/>
      <point x="319" y="842"/>
      <point x="218" y="842" type="curve" smooth="yes"/>
      <point x="155" y="842" type="line"/>
      <point x="145" y="777" type="line"/>
      <point x="188" y="777" type="line" smooth="yes"/>
      <point x="237" y="777"/>
      <point x="267" y="752"/>
      <point x="267" y="690" type="curve" smooth="yes"/>
      <point x="267" y="678"/>
      <point x="266" y="665"/>
      <point x="264" y="650" type="curve" smooth="yes"/>
      <point x="158" y="-18" type="line" smooth="yes"/>
      <point x="146" y="-93"/>
      <point x="110" y="-145"/>
      <point x="42" y="-145" type="curve" smooth="yes"/>
    </contour>
  </outline>
</glyph>
<glyph name="a" format="1">
  <advance width="564"/>
  <unicode hex="0061"/>
  <note>
    GF Latin Plus glyph
  </note>
  <outline>
    <contour>
      <point x="171" y="268" type="curve" smooth="yes"/>
      <point x="194" y="410"/>
      <point x="238" y="474"/>
      <point x="364" y="474" type="curve" smooth="yes"/>
      <point x="423" y="474"/>
      <point x="468" y="457"/>
      <point x="487" y="446" type="curve"/>
      <point x="434" y="108" type="line"/>
      <point x="385" y="84"/>
      <point x="336" y="59"/>
      <point x="272" y="59" type="curve" smooth="yes"/>
      <point x="205" y="59"/>
      <point x="162" y="102"/>
      <point x="162" y="187" type="curve" smooth="yes"/>
      <point x="162" y="207"/>
      <point x="165" y="233"/>
    </contour>
    <contour>
      <point x="94" y="278" type="curve" smooth="yes"/>
      <point x="89" y="249"/>
      <point x="83" y="209"/>
      <point x="83" y="175" type="curve" smooth="yes"/>
      <point x="83" y="47"/>
      <point x="153" y="-6"/>
      <point x="241" y="-6" type="curve" smooth="yes"/>
      <point x="311" y="-6"/>
      <point x="398" y="35"/>
      <point x="427" y="57" type="curve"/>
      <point x="429" y="0" type="line"/>
      <point x="497" y="0" type="line"/>
      <point x="573" y="480" type="line"/>
      <point x="526" y="521"/>
      <point x="440" y="540"/>
      <point x="368" y="540" type="curve" smooth="yes"/>
      <point x="199" y="540"/>
      <point x="122" y="456"/>
    </contour>
    <contour>
      <point x="382" y="650" type="move" name="top"/>
    </contour>
    <contour>
      <point x="487" y="0" type="move" name="ogonek"/>
    </contour>
    <contour>
      <point x="256" y="-150" type="move" name="bottom"/>
    </contour>
  </outline>
</glyph>
<glyph name="i" format="1">
  <advance width="215"/>
  <unicode hex="0069"/>
  <note>
    GF Latin Plus glyph
  </note>
  <outline>
    <contour>
      <point x="166" y="645" type="line" smooth="yes"/>
      <point x="165" y="636"/>
      <point x="170" y="629"/>
      <point x="180" y="629" type="curve" smooth="yes"/>
      <point x="236" y="629" type="line" smooth="yes"/>
      <point x="246" y="629"/>
      <point x="252" y="635"/>
      <point x="254" y="645" type="curve" smooth="yes"/>
      <point x="266" y="723" type="line" smooth="yes"/>
      <point x="267" y="732"/>
      <point x="264" y="739"/>
      <point x="254" y="739" type="curve" smooth="yes"/>
      <point x="197" y="739" type="line" smooth="yes"/>
      <point x="187" y="739"/>
      <point x="180" y="733"/>
      <point x="179" y="723" type="curve" smooth="yes"/>
    </contour>
    <component base="idotless"/>
    <contour>
      <point x="138" y="0" type="move" name="ogonek"/>
    </contour>
    <contour>
      <point x="92" y="-150" type="move" name="bottom"/>
    </contour>
  </outline>
</glyph>
<glyph name="k" format="1">
  <advance width="526"/>
  <unicode hex="006B"/>
  <note>
    GF Latin Plus glyph
  </note>
  <outline>
    <contour>
      <point x="68" y="0" type="line"/>
      <point x="148" y="0" type="line"/>
      <point x="189" y="258" type="line"/>
      <point x="213" y="258"/>
      <point x="252" y="262"/>
      <point x="281" y="270" type="curve"/>
      <point x="422" y="0" type="line"/>
      <point x="505" y="0" type="line"/>
      <point x="349" y="294" type="line"/>
      <point x="419" y="325"/>
      <point x="492" y="390"/>
      <point x="533" y="534" type="curve"/>
      <point x="454" y="534" type="line"/>
      <point x="410" y="384"/>
      <point x="318" y="326"/>
      <point x="198" y="319" type="curve"/>
      <point x="269" y="763" type="line"/>
      <point x="189" y="763" type="line"/>
    </contour>
    <contour>
      <point x="246" y="-150" type="move" name="bottom"/>
    </contour>
  </outline>
</glyph>
<glyph name="m" format="1">
  <advance width="936"/>
  <unicode hex="006D"/>
  <note>
    GF Latin Plus glyph
  </note>
  <outline>
    <contour>
      <point x="68" y="0" type="line"/>
      <point x="148" y="0" type="line"/>
      <point x="213" y="414" type="line"/>
      <point x="273" y="447"/>
      <point x="320" y="470"/>
      <point x="392" y="470" type="curve" smooth="yes"/>
      <point x="461" y="470"/>
      <point x="487" y="436"/>
      <point x="487" y="385" type="curve" smooth="yes"/>
      <point x="487" y="370"/>
      <point x="486" y="361"/>
      <point x="484" y="345" type="curve" smooth="yes"/>
      <point x="429" y="0" type="line"/>
      <point x="508" y="0" type="line"/>
      <point x="563" y="345" type="line" smooth="yes"/>
      <point x="567" y="371"/>
      <point x="567" y="391"/>
      <point x="566" y="407" type="curve"/>
      <point x="626" y="445"/>
      <point x="679" y="470"/>
      <point x="751" y="470" type="curve" smooth="yes"/>
      <point x="816" y="470"/>
      <point x="848" y="442"/>
      <point x="848" y="384" type="curve" smooth="yes"/>
      <point x="848" y="373"/>
      <point x="846" y="361"/>
      <point x="845" y="353" type="curve" smooth="yes"/>
      <point x="789" y="0" type="line"/>
      <point x="868" y="0" type="line"/>
      <point x="924" y="354" type="line" smooth="yes"/>
      <point x="927" y="371"/>
      <point x="930" y="394"/>
      <point x="930" y="412" type="curve" smooth="yes"/>
      <point x="930" y="500"/>
      <point x="881" y="542"/>
      <point x="788" y="542" type="curve" smooth="yes"/>
      <point x="712" y="542"/>
      <point x="629" y="512"/>
      <point x="565" y="461" type="curve"/>
      <point x="544" y="512"/>
      <point x="508" y="542"/>
      <point x="432" y="542" type="curve" smooth="yes"/>
      <point x="351" y="542"/>
      <point x="280" y="511"/>
      <point x="223" y="475" type="curve"/>
      <point x="216" y="534" type="line"/>
      <point x="153" y="534" type="line"/>
    </contour>
    <contour>
      <point x="566" y="650" type="move" name="top"/>
    </contour>
    <contour>
      <point x="440" y="-150" type="move" name="bottom"/>
    </contour>
  </outline>
</glyph>
<glyph name="o" format="1">
  <advance width="566"/>
  <unicode hex="006F"/>
  <note>
    GF Latin Plus glyph
  </note>
  <outline>
    <contour>
      <point x="172" y="259" type="curve" smooth="yes"/>
      <point x="199" y="437"/>
      <point x="244" y="476"/>
      <point x="357" y="476" type="curve" smooth="yes"/>
      <point x="450" y="476"/>
      <point x="485" y="443"/>
      <point x="485" y="355" type="curve" smooth="yes"/>
      <point x="485" y="328"/>
      <point x="482" y="297"/>
      <point x="476" y="259" type="curve" smooth="yes"/>
      <point x="450" y="92"/>
      <point x="399" y="59"/>
      <point x="292" y="59" type="curve" smooth="yes"/>
      <point x="216" y="59"/>
      <point x="164" y="80"/>
      <point x="164" y="178" type="curve" smooth="yes"/>
      <point x="164" y="201"/>
      <point x="167" y="228"/>
    </contour>
    <contour>
      <point x="94" y="273" type="curve" smooth="yes"/>
      <point x="89" y="239"/>
      <point x="86" y="208"/>
      <point x="86" y="175" type="curve" smooth="yes"/>
      <point x="86" y="44"/>
      <point x="161" y="-6"/>
      <point x="282" y="-6" type="curve" smooth="yes"/>
      <point x="448" y="-6"/>
      <point x="524" y="50"/>
      <point x="555" y="246" type="curve" smooth="yes"/>
      <point x="561" y="285"/>
      <point x="565" y="321"/>
      <point x="565" y="352" type="curve" smooth="yes"/>
      <point x="565" y="477"/>
      <point x="516" y="540"/>
      <point x="368" y="540" type="curve" smooth="yes"/>
      <point x="202" y="540"/>
      <point x="128" y="486"/>
    </contour>
    <contour>
      <point x="378" y="650" type="move" name="top"/>
    </contour>
    <contour>
      <point x="354" y="0" type="move" name="ogonek"/>
    </contour>
    <contour>
      <point x="252" y="-150" type="move" name="bottom"/>
    </contour>
  </outline>
</glyph>
<glyph name="p" format="1">
  <advance width="565"/>
  <unicode hex="0070"/>
  <note>
    GF Latin Plus glyph
  </note>
  <outline>
    <contour>
      <point x="160" y="87" type="curve"/>
      <point x="221" y="473" type="line"/>
      <point x="375" y="474" type="line" smooth="yes"/>
      <point x="452" y="475"/>
      <point x="487" y="430"/>
      <point x="487" y="345" type="curve" smooth="yes"/>
      <point x="487" y="319"/>
      <point x="482" y="291"/>
      <point x="479" y="270" type="curve" smooth="yes"/>
      <point x="456" y="133"/>
      <point x="411" y="62"/>
      <point x="299" y="62" type="curve" smooth="yes"/>
      <point x="242" y="62"/>
      <point x="215" y="69"/>
    </contour>
    <contour>
      <point x="30" y="-237" type="line"/>
      <point x="110" y="-237" type="line"/>
      <point x="151" y="25" type="line"/>
      <point x="198" y="2"/>
      <point x="246" y="-6"/>
      <point x="306" y="-6" type="curve" smooth="yes"/>
      <point x="453" y="-6"/>
      <point x="529" y="90"/>
      <point x="555" y="254" type="curve" smooth="yes"/>
      <point x="560" y="285"/>
      <point x="565" y="322"/>
      <point x="565" y="357" type="curve" smooth="yes"/>
      <point x="565" y="480"/>
      <point x="508" y="540"/>
      <point x="394" y="540" type="curve" smooth="yes"/>
      <point x="294" y="540"/>
      <point x="216" y="533"/>
      <point x="151" y="523" type="curve"/>
    </contour>
    <contour>
      <point x="381" y="650" type="move" name="top"/>
    </contour>
  </outline>
</glyph>
<glyph name="r" format="1">
  <advance width="395"/>
  <unicode hex="0072"/>
  <note>
    GF Latin Plus glyph
  </note>
  <outline>
    <contour>
      <point x="69" y="0" type="line"/>
      <point x="148" y="0" type="line"/>
      <point x="212" y="407" type="line"/>
      <point x="254" y="434"/>
      <point x="306" y="459"/>
      <point x="370" y="459" type="curve" smooth="yes"/>
      <point x="389" y="459"/>
      <point x="425" y="457"/>
      <point x="439" y="453" type="curve"/>
      <point x="451" y="533" type="line"/>
      <point x="433" y="538"/>
      <point x="411" y="540"/>
      <point x="386" y="540" type="curve" smooth="yes"/>
      <point x="319" y="540"/>
      <point x="264" y="506"/>
      <point x="222" y="468" type="curve"/>
      <point x="220" y="534" type="line"/>
      <point x="153" y="534" type="line"/>
    </contour>
    <contour>
      <point x="303" y="651" type="move" name="top"/>
    </contour>
    <contour>
      <point x="86" y="-150" type="move" name="bottom"/>
    </contour>
  </outline>
</glyph>
<glyph name="u" format="1">
  <advance width="576"/>
  <unicode hex="0075"/>
  <note>
    GF Latin Plus glyph
  </note>
  <outline>
    <contour>
      <point x="95" y="175" type="line" smooth="yes"/>
      <point x="93" y="160"/>
      <point x="91" y="141"/>
      <point x="91" y="118" type="curve" smooth="yes"/>
      <point x="91" y="41"/>
      <point x="135" y="-6"/>
      <point x="228" y="-6" type="curve" smooth="yes"/>
      <point x="318" y="-6"/>
      <point x="376" y="20"/>
      <point x="438" y="59" type="curve"/>
      <point x="440" y="0" type="line"/>
      <point x="507" y="0" type="line"/>
      <point x="592" y="534" type="line"/>
      <point x="512" y="534" type="line"/>
      <point x="447" y="119" type="line"/>
      <point x="386" y="86"/>
      <point x="337" y="65"/>
      <point x="267" y="65" type="curve" smooth="yes"/>
      <point x="202" y="65"/>
      <point x="173" y="94"/>
      <point x="173" y="148" type="curve" smooth="yes"/>
      <point x="173" y="160"/>
      <point x="174" y="170"/>
      <point x="176" y="180" type="curve" smooth="yes"/>
      <point x="231" y="534" type="line"/>
      <point x="152" y="534" type="line"/>
    </contour>
    <contour>
      <point x="390" y="650" type="move" name="top"/>
    </contour>
    <contour>
      <point x="497" y="0" type="move" name="ogonek"/>
    </contour>
    <contour>
      <point x="264" y="-150" type="move" name="bottom"/>
    </contour>
  </outline>
</glyph>
<glyph name="y" format="1">
  <advance width="557"/>
  <unicode hex="0079"/>
  <note>
    GF Latin Plus glyph
  </note>
  <outline>
    <contour>
      <point x="98" y="534" type="line"/>
      <point x="165" y="125" type="line" smooth="yes"/>
      <point x="180" y="30"/>
      <point x="222" y="7"/>
      <point x="286" y="0" type="curve"/>
      <point x="231" y="-116"/>
      <point x="162" y="-163"/>
      <point x="97" y="-178" type="curve"/>
      <point x="97" y="-237" type="line"/>
      <point x="200" y="-224"/>
      <point x="280" y="-165"/>
      <point x="361" y="4" type="curve" smooth="yes"/>
      <point x="542" y="385" type="line" smooth="yes"/>
      <point x="570" y="443"/>
      <point x="580" y="493"/>
      <point x="580" y="542" type="curve"/>
      <point x="510" y="542" type="line"/>
      <point x="507" y="504"/>
      <point x="492" y="464"/>
      <point x="480" y="434" type="curve" smooth="yes"/>
      <point x="313" y="68" type="line"/>
      <point x="279" y="70"/>
      <point x="246" y="80"/>
      <point x="236" y="142" type="curve" smooth="yes"/>
      <point x="179" y="534" type="line"/>
    </contour>
    <contour>
      <point x="356" y="650" type="move" name="top"/>
    </contour>
    <contour>
      <point x="436" y="-150" type="move" name="bottom"/>
    </contour>
  </outline>
</glyph>
<glyph name="braceleft" format="1">
  <advance width="310"/>
  <unicode hex="007B"/>
  <note>
    GF Latin Plus glyph
  </note>
  <outline>
    <contour>
      <point x="89" y="296" type="line"/>
      <point x="140" y="296"/>
      <point x="160" y="278"/>
      <point x="160" y="238" type="curve" smooth="yes"/>
      <point x="160" y="206"/>
      <point x="110" y="-38"/>
      <point x="110" y="-89" type="curve" smooth="yes"/>
      <point x="110" y="-161"/>
      <point x="147" y="-210"/>
      <point x="275" y="-210" type="curve"/>
      <point x="284" y="-148" type="line"/>
      <point x="223" y="-148"/>
      <point x="193" y="-128"/>
      <point x="193" y="-67" type="curve" smooth="yes"/>
      <point x="193" y="-31"/>
      <point x="242" y="226"/>
      <point x="242" y="255" type="curve" smooth="yes"/>
      <point x="242" y="295"/>
      <point x="217" y="327"/>
      <point x="166" y="334" type="curve"/>
      <point x="217" y="340"/>
      <point x="260" y="370"/>
      <point x="269" y="426" type="curve" smooth="yes"/>
      <point x="303" y="642" type="line" smooth="yes"/>
      <point x="321" y="757"/>
      <point x="358" y="777"/>
      <point x="431" y="777" type="curve"/>
      <point x="442" y="842" type="line"/>
      <point x="299" y="842"/>
      <point x="246" y="783"/>
      <point x="226" y="656" type="curve" smooth="yes"/>
      <point x="191" y="438" type="line" smooth="yes"/>
      <point x="183" y="386"/>
      <point x="134" y="374"/>
      <point x="100" y="371" type="curve"/>
    </contour>
  </outline>
</glyph>
<glyph name="braceright" format="1">
  <advance width="310"/>
  <unicode hex="007D"/>
  <note>
    GF Latin Plus glyph
  </note>
  <outline>
    <contour>
      <point x="0" y="-148" type="curve"/>
      <point x="-10" y="-210" type="line"/>
      <point x="148" y="-210"/>
      <point x="189" y="-137"/>
      <point x="205" y="-38" type="curve" smooth="yes"/>
      <point x="244" y="209" type="line" smooth="yes"/>
      <point x="252" y="258"/>
      <point x="291" y="276"/>
      <point x="334" y="276" type="curve"/>
      <point x="346" y="351" type="line"/>
      <point x="316" y="354"/>
      <point x="275" y="364"/>
      <point x="275" y="407" type="curve" smooth="yes"/>
      <point x="275" y="431"/>
      <point x="318" y="688"/>
      <point x="318" y="708" type="curve" smooth="yes"/>
      <point x="318" y="787"/>
      <point x="276" y="842"/>
      <point x="157" y="842" type="curve"/>
      <point x="147" y="777" type="line"/>
      <point x="205" y="777"/>
      <point x="236" y="756"/>
      <point x="236" y="691" type="curve" smooth="yes"/>
      <point x="236" y="658"/>
      <point x="194" y="430"/>
      <point x="194" y="389" type="curve" smooth="yes"/>
      <point x="194" y="344"/>
      <point x="225" y="319"/>
      <point x="268" y="314" type="curve"/>
      <point x="210" y="306"/>
      <point x="175" y="271"/>
      <point x="167" y="224" type="curve" smooth="yes"/>
      <point x="127" y="-27" type="line" smooth="yes"/>
      <point x="112" y="-115"/>
      <point x="76" y="-148"/>
    </contour>
  </outline>
</glyph>
<glyph name="cent" format="1">
  <advance width="487"/>
  <unicode hex="00A2"/>
  <note>
    GF Latin Plus glyph
  </note>
  <outline>
    <contour>
      <point x="77" y="175" type="curve" smooth="yes"/>
      <point x="77" y="32"/>
      <point x="148" y="-1"/>
      <point x="238" y="-5" type="curve"/>
      <point x="225" y="-86" type="line"/>
      <point x="273" y="-86" type="line"/>
      <point x="285" y="-5" type="line"/>
      <point x="342" y="-1"/>
      <point x="385" y="5"/>
      <point x="447" y="27" type="curve"/>
      <point x="455" y="75" type="line"/>
      <point x="407" y="65"/>
      <point x="357" y="57"/>
      <point x="275" y="57" type="curve" smooth="yes"/>
      <point x="201" y="57"/>
      <point x="157" y="78"/>
      <point x="157" y="177" type="curve" smooth="yes"/>
      <point x="157" y="336"/>
      <point x="228" y="474"/>
      <point x="346" y="474" type="curve" smooth="yes"/>
      <point x="416" y="474"/>
      <point x="472" y="468"/>
      <point x="510" y="460" type="curve"/>
      <point x="517" y="507" type="line"/>
      <point x="472" y="521"/>
      <point x="417" y="531"/>
      <point x="373" y="535" type="curve"/>
      <point x="386" y="623" type="line"/>
      <point x="339" y="623" type="line"/>
      <point x="325" y="536" type="line"/>
      <point x="182" y="534"/>
      <point x="77" y="377"/>
    </contour>
  </outline>
</glyph>
<glyph name="currency" format="1">
  <advance width="609"/>
  <unicode hex="00A4"/>
  <note>
    GF Latin Plus glyph
  </note>
  <outline>
    <contour>
      <point x="383" y="521" type="curve" smooth="yes"/>
      <point x="277" y="521"/>
      <point x="195" y="439"/>
      <point x="195" y="334" type="curve" smooth="yes"/>
      <point x="195" y="256"/>
      <point x="257" y="191"/>
      <point x="339" y="191" type="curve" smooth="yes"/>
      <point x="445" y="191"/>
      <point x="528" y="273"/>
      <point x="528" y="378" type="curve" smooth="yes"/>
      <point x="528" y="456"/>
      <point x="465" y="521"/>
    </contour>
    <contour>
      <point x="294" y="479" type="line"/>
      <point x="206" y="583" type="line"/>
      <point x="165" y="546" type="line"/>
      <point x="252" y="442" type="line"/>
    </contour>
    <contour>
      <point x="495" y="440" type="line"/>
      <point x="618" y="546" type="line"/>
      <point x="587" y="583" type="line"/>
      <point x="465" y="477" type="line"/>
    </contour>
    <contour>
      <point x="557" y="166" type="line"/>
      <point x="468" y="272" type="line"/>
      <point x="426" y="235" type="line"/>
      <point x="516" y="129" type="line"/>
    </contour>
    <contour>
      <point x="135" y="129" type="line"/>
      <point x="262" y="237" type="line"/>
      <point x="229" y="274" type="line"/>
      <point x="104" y="166" type="line"/>
    </contour>
    <contour>
      <point x="380" y="474" type="curve" smooth="yes"/>
      <point x="438" y="474"/>
      <point x="481" y="431"/>
      <point x="481" y="374" type="curve" smooth="yes"/>
      <point x="481" y="287"/>
      <point x="419" y="238"/>
      <point x="342" y="238" type="curve" smooth="yes"/>
      <point x="285" y="238"/>
      <point x="243" y="282"/>
      <point x="243" y="338" type="curve" smooth="yes"/>
      <point x="243" y="420"/>
      <point x="305" y="474"/>
    </contour>
  </outline>
</glyph>
<glyph name="uni00AD" format="1">
  <advance width="358"/>
  <unicode hex="00AD"/>
  <outline>
    <contour>
      <point x="58" y="257" type="line"/>
      <point x="68" y="323" type="line"/>
      <point x="382" y="323" type="line"/>
      <point x="372" y="257" type="line"/>
    </contour>
  </outline>
</glyph>
<glyph name="degree" format="1">
  <advance width="329"/>
  <unicode hex="00B0"/>
  <note>
    GF Latin Plus glyph
  </note>
  <outline>
    <contour>
      <point x="280" y="724" type="curve" smooth="yes"/>
      <point x="329" y="724"/>
      <point x="359" y="692"/>
      <point x="359" y="647" type="curve" smooth="yes"/>
      <point x="359" y="582"/>
      <point x="314" y="535"/>
      <point x="250" y="535" type="curve" smooth="yes"/>
      <point x="201" y="535"/>
      <point x="169" y="566"/>
      <point x="169" y="612" type="curve" smooth="yes"/>
      <point x="169" y="675"/>
      <point x="215" y="724"/>
    </contour>
    <contour>
      <point x="131" y="608" type="curve" smooth="yes"/>
      <point x="131" y="542"/>
      <point x="177" y="497"/>
      <point x="244" y="497" type="curve" smooth="yes"/>
      <point x="340" y="497"/>
      <point x="397" y="562"/>
      <point x="397" y="650" type="curve" smooth="yes"/>
      <point x="397" y="717"/>
      <point x="354" y="762"/>
      <point x="286" y="762" type="curve" smooth="yes"/>
      <point x="190" y="762"/>
      <point x="131" y="694"/>
    </contour>
  </outline>
</glyph>
<glyph name="twosuperior" format="1">
  <advance width="419"/>
  <unicode hex="00B2"/>
  <outline>
    <contour>
      <point x="188" y="786" type="line"/>
      <point x="321" y="786" type="line" smooth="yes"/>
      <point x="388" y="786"/>
      <point x="409" y="763"/>
      <point x="409" y="729" type="curve" smooth="yes"/>
      <point x="409" y="685"/>
      <point x="384" y="635"/>
      <point x="314" y="576" type="curve" smooth="yes"/>
      <point x="111" y="406" type="line"/>
      <point x="104" y="355" type="line"/>
      <point x="434" y="355" type="line"/>
      <point x="443" y="413" type="line"/>
      <point x="202" y="413" type="line"/>
      <point x="359" y="544" type="line" smooth="yes"/>
      <point x="448" y="619"/>
      <point x="477" y="683"/>
      <point x="477" y="750" type="curve" smooth="yes"/>
      <point x="477" y="809"/>
      <point x="442" y="846"/>
      <point x="345" y="846" type="curve" smooth="yes"/>
      <point x="289" y="846"/>
      <point x="237" y="840"/>
      <point x="196" y="835" type="curve"/>
    </contour>
  </outline>
</glyph>
<glyph name="threesuperior" format="1">
  <advance width="419"/>
  <unicode hex="00B3"/>
  <outline>
    <contour>
      <point x="180" y="786" type="line"/>
      <point x="321" y="786" type="line" smooth="yes"/>
      <point x="378" y="786"/>
      <point x="405" y="766"/>
      <point x="405" y="732" type="curve" smooth="yes"/>
      <point x="405" y="727"/>
      <point x="405" y="723"/>
      <point x="404" y="719" type="curve" smooth="yes"/>
      <point x="399" y="687" type="line" smooth="yes"/>
      <point x="392" y="647"/>
      <point x="359" y="632"/>
      <point x="313" y="630" type="curve" smooth="yes"/>
      <point x="189" y="624" type="line"/>
      <point x="181" y="576" type="line"/>
      <point x="307" y="571" type="line" smooth="yes"/>
      <point x="342" y="570"/>
      <point x="378" y="558"/>
      <point x="378" y="519" type="curve" smooth="yes"/>
      <point x="378" y="515"/>
      <point x="378" y="511"/>
      <point x="377" y="506" type="curve" smooth="yes"/>
      <point x="372" y="477" type="line" smooth="yes"/>
      <point x="364" y="424"/>
      <point x="324" y="411"/>
      <point x="267" y="411" type="curve" smooth="yes"/>
      <point x="107" y="411" type="line"/>
      <point x="98" y="361" type="line"/>
      <point x="144" y="355"/>
      <point x="208" y="351"/>
      <point x="279" y="351" type="curve" smooth="yes"/>
      <point x="367" y="351"/>
      <point x="424" y="391"/>
      <point x="436" y="466" type="curve" smooth="yes"/>
      <point x="441" y="499" type="line" smooth="yes"/>
      <point x="443" y="507"/>
      <point x="444" y="514"/>
      <point x="444" y="521" type="curve" smooth="yes"/>
      <point x="444" y="570"/>
      <point x="407" y="594"/>
      <point x="380" y="600" type="curve"/>
      <point x="411" y="607"/>
      <point x="455" y="631"/>
      <point x="464" y="690" type="curve" smooth="yes"/>
      <point x="470" y="730" type="line" smooth="yes"/>
      <point x="472" y="738"/>
      <point x="472" y="746"/>
      <point x="472" y="754" type="curve" smooth="yes"/>
      <point x="472" y="811"/>
      <point x="434" y="846"/>
      <point x="356" y="846" type="curve" smooth="yes"/>
      <point x="290" y="846"/>
      <point x="236" y="842"/>
      <point x="189" y="835" type="curve"/>
    </contour>
  </outline>
</glyph>
<glyph name="periodcentered" format="1">
  <advance width="273"/>
  <unicode hex="00B7"/>
  <note>
    GF Latin Plus glyph
  </note>
  <outline>
    <contour>
      <point x="126" y="360" type="line" smooth="yes"/>
      <point x="125" y="351"/>
      <point x="130" y="345"/>
      <point x="140" y="345" type="curve" smooth="yes"/>
      <point x="184" y="345" type="line" smooth="yes"/>
      <point x="194" y="345"/>
      <point x="201" y="349"/>
      <point x="202" y="360" type="curve" smooth="yes"/>
      <point x="210" y="407" type="line" smooth="yes"/>
      <point x="211" y="416"/>
      <point x="208" y="423"/>
      <point x="197" y="423" type="curve" smooth="yes"/>
      <point x="152" y="423" type="line" smooth="yes"/>
      <point x="141" y="423"/>
      <point x="135" y="417"/>
      <point x="134" y="407" type="curve" smooth="yes"/>
    </contour>
  </outline>
</glyph>
<glyph name="onesuperior" format="1">
  <advance width="419"/>
  <unicode hex="00B9"/>
  <outline>
    <contour>
      <point x="130" y="412" type="line"/>
      <point x="121" y="355" type="line"/>
      <point x="424" y="355" type="line"/>
      <point x="434" y="412" type="line"/>
    </contour>
    <contour>
      <point x="192" y="761" type="line"/>
      <point x="309" y="788" type="line"/>
      <point x="240" y="355" type="line"/>
      <point x="305" y="355" type="line"/>
      <point x="383" y="847" type="line"/>
      <point x="324" y="847" type="line"/>
      <point x="199" y="803" type="line"/>
    </contour>
  </outline>
</glyph>
<glyph name="oe" format="1">
  <advance width="934"/>
  <unicode hex="0153"/>
  <note>
    GF Latin Plus glyph
  </note>
  <outline>
    <contour>
      <point x="870" y="7" type="curve"/>
      <point x="878" y="55" type="line"/>
      <point x="716" y="55" type="line" smooth="yes"/>
      <point x="598" y="55"/>
      <point x="550" y="91"/>
      <point x="550" y="175" type="curve" smooth="yes"/>
      <point x="550" y="194"/>
      <point x="551" y="216"/>
      <point x="554" y="236" type="curve"/>
      <point x="580" y="229"/>
      <point x="633" y="221"/>
      <point x="696" y="221" type="curve" smooth="yes"/>
      <point x="824" y="221"/>
      <point x="945" y="253"/>
      <point x="945" y="396" type="curve" smooth="yes"/>
      <point x="945" y="507"/>
      <point x="867" y="542"/>
      <point x="757" y="542" type="curve" smooth="yes"/>
      <point x="648" y="542"/>
      <point x="581" y="499"/>
      <point x="540" y="412" type="curve"/>
      <point x="519" y="492"/>
      <point x="471" y="540"/>
      <point x="365" y="540" type="curve" smooth="yes"/>
      <point x="205" y="540"/>
      <point x="128" y="486"/>
      <point x="94" y="273" type="curve" smooth="yes"/>
      <point x="89" y="239"/>
      <point x="86" y="208"/>
      <point x="86" y="175" type="curve" smooth="yes"/>
      <point x="86" y="44"/>
      <point x="160" y="-6"/>
      <point x="279" y="-6" type="curve" smooth="yes"/>
      <point x="397" y="-6"/>
      <point x="455" y="38"/>
      <point x="499" y="121" type="curve"/>
      <point x="516" y="37"/>
      <point x="578" y="-6"/>
      <point x="700" y="-6" type="curve" smooth="yes"/>
      <point x="760" y="-6"/>
      <point x="829" y="1"/>
    </contour>
    <contour>
      <point x="560" y="279" type="curve"/>
      <point x="578" y="407"/>
      <point x="625" y="480"/>
      <point x="749" y="480" type="curve" smooth="yes"/>
      <point x="830" y="480"/>
      <point x="871" y="454"/>
      <point x="871" y="388" type="curve" smooth="yes"/>
      <point x="871" y="296"/>
      <point x="791" y="270"/>
      <point x="669" y="270" type="curve" smooth="yes"/>
      <point x="628" y="270"/>
      <point x="588" y="274"/>
    </contour>
    <contour>
      <point x="172" y="259" type="curve" smooth="yes"/>
      <point x="199" y="437"/>
      <point x="244" y="476"/>
      <point x="357" y="476" type="curve" smooth="yes"/>
      <point x="448" y="476"/>
      <point x="485" y="442"/>
      <point x="485" y="355" type="curve" smooth="yes"/>
      <point x="485" y="328"/>
      <point x="482" y="297"/>
      <point x="476" y="259" type="curve" smooth="yes"/>
      <point x="450" y="92"/>
      <point x="392" y="59"/>
      <point x="292" y="59" type="curve" smooth="yes"/>
      <point x="216" y="59"/>
      <point x="164" y="84"/>
      <point x="164" y="178" type="curve" smooth="yes"/>
      <point x="164" y="201"/>
      <point x="167" y="228"/>
    </contour>
  </outline>
</glyph>
<glyph name="florin" format="1">
  <advance width="609"/>
  <unicode hex="0192"/>
  <note>
    GF Latin Plus glyph
  </note>
  <outline>
    <contour>
      <point x="-9" y="-192" type="line"/>
      <point x="9" y="-198"/>
      <point x="44" y="-204"/>
      <point x="80" y="-204" type="curve" smooth="yes"/>
      <point x="195" y="-204"/>
      <point x="254" y="-118"/>
      <point x="320" y="88" type="curve" smooth="yes"/>
      <point x="421" y="402" type="line"/>
      <point x="548" y="402" type="line"/>
      <point x="565" y="460" type="line"/>
      <point x="437" y="460" type="line"/>
      <point x="473" y="566" type="line" smooth="yes"/>
      <point x="513" y="690"/>
      <point x="544" y="737"/>
      <point x="621" y="737" type="curve" smooth="yes"/>
      <point x="686" y="737" type="line"/>
      <point x="701" y="786" type="line"/>
      <point x="689" y="791"/>
      <point x="661" y="799"/>
      <point x="607" y="799" type="curve" smooth="yes"/>
      <point x="498" y="799"/>
      <point x="448" y="731"/>
      <point x="398" y="581" type="curve" smooth="yes"/>
      <point x="359" y="461" type="line"/>
      <point x="266" y="461" type="line"/>
      <point x="247" y="402" type="line"/>
      <point x="342" y="402" type="line"/>
      <point x="236" y="71" type="line" smooth="yes"/>
      <point x="184" y="-92"/>
      <point x="142" y="-142"/>
      <point x="71" y="-142" type="curve" smooth="yes"/>
      <point x="7" y="-142" type="line"/>
    </contour>
  </outline>
</glyph>
<glyph name="Ohorn" format="1">
  <advance width="688"/>
  <unicode hex="01A0"/>
  <note>
    GF Latin Plus glyph
  </note>
  <outline>
    <contour>
      <point x="484" y="691" type="line"/>
      <point x="622" y="691" type="line" smooth="yes"/>
      <point x="688" y="691"/>
      <point x="753" y="733"/>
      <point x="771" y="849" type="curve"/>
      <point x="714" y="849" type="line"/>
      <point x="700" y="764"/>
      <point x="664" y="736"/>
      <point x="617" y="736" type="curve" smooth="yes"/>
      <point x="491" y="736" type="line"/>
    </contour>
    <component base="O"/>
    <contour>
      <point x="463" y="810" type="move" name="top"/>
    </contour>
    <contour>
      <point x="313" y="-150" type="move" name="bottom"/>
    </contour>
  </outline>
</glyph>
<glyph name="ohorn" format="1">
  <advance width="578"/>
  <unicode hex="01A1"/>
  <note>
    GF Latin Plus glyph
  </note>
  <outline>
    <component base="o"/>
    <component base="horncomb" xOffset="654"/>
    <contour>
      <point x="368" y="650" type="move" name="top"/>
    </contour>
    <contour>
      <point x="261" y="-150" type="move" name="bottom"/>
    </contour>
  </outline>
</glyph>
<glyph name="Uhorn" format="1">
  <advance width="675"/>
  <unicode hex="01AF"/>
  <note>
    GF Latin Plus glyph
  </note>
  <outline>
    <contour>
      <point x="643" y="691" type="line"/>
      <point x="685" y="691" type="line" smooth="yes"/>
      <point x="752" y="691"/>
      <point x="816" y="733"/>
      <point x="835" y="849" type="curve"/>
      <point x="777" y="849" type="line"/>
      <point x="763" y="764"/>
      <point x="727" y="736"/>
      <point x="681" y="736" type="curve" smooth="yes"/>
      <point x="650" y="736" type="line"/>
    </contour>
    <component base="U"/>
    <contour>
      <point x="455" y="810" type="move" name="top"/>
    </contour>
    <contour>
      <point x="318" y="-150" type="move" name="bottom"/>
    </contour>
  </outline>
</glyph>
<glyph name="dotaccent" format="1">
  <advance width="177"/>
  <unicode hex="02D9"/>
  <note>
    GF Latin Plus glyph
  </note>
  <outline>
    <contour>
      <point x="157" y="669" type="line" smooth="yes"/>
      <point x="157" y="668"/>
      <point x="157" y="667"/>
      <point x="157" y="666" type="curve" smooth="yes"/>
      <point x="157" y="658"/>
      <point x="162" y="653"/>
      <point x="170" y="653" type="curve" smooth="yes"/>
      <point x="207" y="653" type="line" smooth="yes"/>
      <point x="216" y="653"/>
      <point x="223" y="659"/>
      <point x="225" y="669" type="curve" smooth="yes"/>
      <point x="237" y="747" type="line" smooth="yes"/>
      <point x="237" y="748"/>
      <point x="237" y="749"/>
      <point x="237" y="750" type="curve" smooth="yes"/>
      <point x="237" y="758"/>
      <point x="233" y="763"/>
      <point x="224" y="763" type="curve" smooth="yes"/>
      <point x="187" y="763" type="line" smooth="yes"/>
      <point x="177" y="763"/>
      <point x="171" y="757"/>
      <point x="169" y="747" type="curve" smooth="yes"/>
    </contour>
  </outline>
</glyph>
<glyph name="dagger" format="1">
  <advance width="427"/>
  <unicode hex="2020"/>
  <note>
    GF Latin Plus glyph
  </note>
  <outline>
    <contour>
      <point x="98" y="483" type="line"/>
      <point x="248" y="475" type="line"/>
      <point x="169" y="-72" type="line"/>
      <point x="234" y="-72" type="line"/>
      <point x="329" y="475" type="line"/>
      <point x="481" y="483" type="line"/>
      <point x="490" y="541" type="line"/>
      <point x="341" y="549" type="line"/>
      <point x="368" y="770" type="line"/>
      <point x="303" y="770" type="line"/>
      <point x="260" y="549" type="line"/>
      <point x="107" y="541" type="line"/>
    </contour>
  </outline>
</glyph>
<glyph name="ellipsis" format="1">
  <advance width="816"/>
  <unicode hex="2026"/>
  <note>
    GF Latin Plus glyph
  </note>
  <outline>
    <contour>
      <point x="101" y="16" type="line" smooth="yes"/>
      <point x="101" y="15"/>
      <point x="101" y="14"/>
      <point x="101" y="13" type="curve" smooth="yes"/>
      <point x="101" y="5"/>
      <point x="106" y="0"/>
      <point x="114" y="0" type="curve" smooth="yes"/>
      <point x="158" y="0" type="line" smooth="yes"/>
      <point x="167" y="0"/>
      <point x="175" y="4"/>
      <point x="176" y="16" type="curve" smooth="yes"/>
      <point x="189" y="95" type="line" smooth="yes"/>
      <point x="189" y="97"/>
      <point x="189" y="98"/>
      <point x="189" y="100" type="curve" smooth="yes"/>
      <point x="189" y="107"/>
      <point x="185" y="112"/>
      <point x="175" y="112" type="curve" smooth="yes"/>
      <point x="132" y="112" type="line" smooth="yes"/>
      <point x="121" y="112"/>
      <point x="115" y="106"/>
      <point x="113" y="95" type="curve" smooth="yes"/>
    </contour>
    <contour>
      <point x="373" y="16" type="line" smooth="yes"/>
      <point x="373" y="15"/>
      <point x="373" y="14"/>
      <point x="373" y="13" type="curve" smooth="yes"/>
      <point x="373" y="5"/>
      <point x="378" y="0"/>
      <point x="386" y="0" type="curve" smooth="yes"/>
      <point x="430" y="0" type="line" smooth="yes"/>
      <point x="439" y="0"/>
      <point x="447" y="4"/>
      <point x="448" y="16" type="curve" smooth="yes"/>
      <point x="461" y="95" type="line" smooth="yes"/>
      <point x="461" y="97"/>
      <point x="461" y="98"/>
      <point x="461" y="100" type="curve" smooth="yes"/>
      <point x="461" y="107"/>
      <point x="457" y="112"/>
      <point x="447" y="112" type="curve" smooth="yes"/>
      <point x="404" y="112" type="line" smooth="yes"/>
      <point x="393" y="112"/>
      <point x="387" y="106"/>
      <point x="385" y="95" type="curve" smooth="yes"/>
    </contour>
    <contour>
      <point x="645" y="16" type="line" smooth="yes"/>
      <point x="645" y="15"/>
      <point x="645" y="14"/>
      <point x="645" y="13" type="curve" smooth="yes"/>
      <point x="645" y="5"/>
      <point x="650" y="0"/>
      <point x="658" y="0" type="curve" smooth="yes"/>
      <point x="702" y="0" type="line" smooth="yes"/>
      <point x="711" y="0"/>
      <point x="719" y="4"/>
      <point x="720" y="16" type="curve" smooth="yes"/>
      <point x="733" y="95" type="line" smooth="yes"/>
      <point x="733" y="97"/>
      <point x="733" y="98"/>
      <point x="733" y="100" type="curve" smooth="yes"/>
      <point x="733" y="107"/>
      <point x="729" y="112"/>
      <point x="719" y="112" type="curve" smooth="yes"/>
      <point x="676" y="112" type="line" smooth="yes"/>
      <point x="665" y="112"/>
      <point x="659" y="106"/>
      <point x="657" y="95" type="curve" smooth="yes"/>
    </contour>
  </outline>
</glyph>
<glyph name="minute" format="1">
  <advance width="155"/>
  <unicode hex="2032"/>
  <outline>
    <contour>
      <point x="105" y="462" type="line"/>
      <point x="160" y="462" type="line"/>
      <point x="249" y="763" type="line"/>
      <point x="176" y="763" type="line"/>
    </contour>
  </outline>
</glyph>
<glyph name="foursuperior" format="1">
  <advance width="419"/>
  <unicode hex="2074"/>
  <outline>
    <contour>
      <point x="108" y="507" type="line"/>
      <point x="117" y="474" type="line"/>
      <point x="347" y="474" type="line"/>
      <point x="328" y="356" type="line"/>
      <point x="392" y="356" type="line"/>
      <point x="412" y="474" type="line"/>
      <point x="477" y="485" type="line"/>
      <point x="484" y="529" type="line"/>
      <point x="420" y="529" type="line"/>
      <point x="447" y="698" type="line"/>
      <point x="396" y="698" type="line"/>
      <point x="375" y="650" type="line"/>
      <point x="355" y="529" type="line"/>
      <point x="190" y="529" type="line"/>
      <point x="411" y="842" type="line"/>
      <point x="343" y="842" type="line"/>
    </contour>
  </outline>
</glyph>
<glyph name="sixsuperior" format="1">
  <advance width="419"/>
  <unicode hex="2076"/>
  <outline>
    <contour>
      <point x="207" y="580" type="curve"/>
      <point x="322" y="580" type="line" smooth="yes"/>
      <point x="371" y="580"/>
      <point x="402" y="572"/>
      <point x="402" y="535" type="curve" smooth="yes"/>
      <point x="402" y="531"/>
      <point x="402" y="525"/>
      <point x="401" y="519" type="curve" smooth="yes"/>
      <point x="393" y="471" type="line" smooth="yes"/>
      <point x="386" y="422"/>
      <point x="353" y="410"/>
      <point x="317" y="410" type="curve" smooth="yes"/>
      <point x="264" y="410" type="line" smooth="yes"/>
      <point x="223" y="410"/>
      <point x="200" y="430"/>
      <point x="200" y="498" type="curve" smooth="yes"/>
      <point x="200" y="520"/>
      <point x="202" y="547"/>
    </contour>
    <contour>
      <point x="136" y="490" type="curve" smooth="yes"/>
      <point x="136" y="383"/>
      <point x="178" y="353"/>
      <point x="246" y="353" type="curve" smooth="yes"/>
      <point x="322" y="353" type="line" smooth="yes"/>
      <point x="388" y="353"/>
      <point x="444" y="382"/>
      <point x="456" y="461" type="curve" smooth="yes"/>
      <point x="467" y="530" type="line" smooth="yes"/>
      <point x="469" y="539"/>
      <point x="470" y="547"/>
      <point x="470" y="555" type="curve" smooth="yes"/>
      <point x="470" y="611"/>
      <point x="427" y="635"/>
      <point x="347" y="635" type="curve" smooth="yes"/>
      <point x="307" y="635"/>
      <point x="254" y="633"/>
      <point x="214" y="626" type="curve"/>
      <point x="234" y="735"/>
      <point x="290" y="789"/>
      <point x="365" y="789" type="curve" smooth="yes"/>
      <point x="478" y="789" type="line"/>
      <point x="486" y="838" type="line"/>
      <point x="452" y="843"/>
      <point x="403" y="846"/>
      <point x="363" y="846" type="curve" smooth="yes"/>
      <point x="218" y="846"/>
      <point x="135" y="703"/>
    </contour>
  </outline>
</glyph>
<glyph name="eightsuperior" format="1">
  <advance width="419"/>
  <unicode hex="2078"/>
  <outline>
    <contour>
      <point x="227" y="687" type="curve" smooth="yes"/>
      <point x="234" y="730" type="line" smooth="yes"/>
      <point x="240" y="772"/>
      <point x="260" y="791"/>
      <point x="304" y="791" type="curve" smooth="yes"/>
      <point x="372" y="791" type="line" smooth="yes"/>
      <point x="402" y="791"/>
      <point x="418" y="779"/>
      <point x="418" y="749" type="curve" smooth="yes"/>
      <point x="418" y="744"/>
      <point x="418" y="735"/>
      <point x="416" y="728" type="curve" smooth="yes"/>
      <point x="410" y="686" type="line" smooth="yes"/>
      <point x="406" y="661"/>
      <point x="385" y="631"/>
      <point x="343" y="631" type="curve" smooth="yes"/>
      <point x="278" y="631" type="line" smooth="yes"/>
      <point x="242" y="631"/>
      <point x="226" y="650"/>
      <point x="226" y="673" type="curve" smooth="yes"/>
      <point x="226" y="678"/>
      <point x="226" y="682"/>
    </contour>
    <contour>
      <point x="183" y="464" type="curve" smooth="yes"/>
      <point x="192" y="519" type="line" smooth="yes"/>
      <point x="200" y="562"/>
      <point x="244" y="576"/>
      <point x="269" y="576" type="curve" smooth="yes"/>
      <point x="335" y="576" type="line" smooth="yes"/>
      <point x="375" y="576"/>
      <point x="393" y="566"/>
      <point x="393" y="536" type="curve" smooth="yes"/>
      <point x="393" y="532"/>
      <point x="392" y="527"/>
      <point x="391" y="519" type="curve" smooth="yes"/>
      <point x="382" y="463" type="line" smooth="yes"/>
      <point x="377" y="427"/>
      <point x="353" y="408"/>
      <point x="310" y="408" type="curve" smooth="yes"/>
      <point x="242" y="408" type="line" smooth="yes"/>
      <point x="208" y="408"/>
      <point x="182" y="419"/>
      <point x="182" y="450" type="curve" smooth="yes"/>
      <point x="182" y="454"/>
      <point x="182" y="459"/>
    </contour>
    <contour>
      <point x="117" y="452" type="line" smooth="yes"/>
      <point x="115" y="445"/>
      <point x="115" y="438"/>
      <point x="115" y="431" type="curve" smooth="yes"/>
      <point x="115" y="374"/>
      <point x="161" y="353"/>
      <point x="224" y="353" type="curve" smooth="yes"/>
      <point x="315" y="353" type="line" smooth="yes"/>
      <point x="383" y="353"/>
      <point x="434" y="378"/>
      <point x="445" y="452" type="curve" smooth="yes"/>
      <point x="457" y="525" type="line" smooth="yes"/>
      <point x="457" y="532"/>
      <point x="459" y="538"/>
      <point x="459" y="546" type="curve" smooth="yes"/>
      <point x="459" y="575"/>
      <point x="445" y="602"/>
      <point x="412" y="609" type="curve"/>
      <point x="448" y="618"/>
      <point x="468" y="660"/>
      <point x="473" y="688" type="curve" smooth="yes"/>
      <point x="482" y="744" type="line" smooth="yes"/>
      <point x="484" y="754"/>
      <point x="484" y="762"/>
      <point x="484" y="770" type="curve" smooth="yes"/>
      <point x="484" y="822"/>
      <point x="447" y="845"/>
      <point x="393" y="845" type="curve" smooth="yes"/>
      <point x="299" y="845" type="line" smooth="yes"/>
      <point x="237" y="845"/>
      <point x="184" y="817"/>
      <point x="172" y="744" type="curve" smooth="yes"/>
      <point x="165" y="694" type="line" smooth="yes"/>
      <point x="162" y="680"/>
      <point x="161" y="672"/>
      <point x="161" y="664" type="curve" smooth="yes"/>
      <point x="161" y="638"/>
      <point x="172" y="616"/>
      <point x="202" y="602" type="curve"/>
      <point x="173" y="595"/>
      <point x="135" y="567"/>
      <point x="128" y="526" type="curve" smooth="yes"/>
    </contour>
  </outline>
</glyph>
<glyph name="ninesuperior" format="1">
  <advance width="419"/>
  <unicode hex="2079"/>
  <outline>
    <contour>
      <point x="412" y="618" type="curve"/>
      <point x="299" y="618" type="line" smooth="yes"/>
      <point x="247" y="618"/>
      <point x="217" y="626"/>
      <point x="217" y="662" type="curve" smooth="yes"/>
      <point x="217" y="667"/>
      <point x="217" y="673"/>
      <point x="218" y="679" type="curve" smooth="yes"/>
      <point x="225" y="727" type="line" smooth="yes"/>
      <point x="233" y="775"/>
      <point x="265" y="787"/>
      <point x="301" y="787" type="curve" smooth="yes"/>
      <point x="355" y="787" type="line" smooth="yes"/>
      <point x="394" y="787"/>
      <point x="419" y="767"/>
      <point x="419" y="700" type="curve" smooth="yes"/>
      <point x="419" y="678"/>
      <point x="417" y="651"/>
    </contour>
    <contour>
      <point x="484" y="709" type="curve" smooth="yes"/>
      <point x="483" y="814"/>
      <point x="441" y="845"/>
      <point x="372" y="845" type="curve" smooth="yes"/>
      <point x="297" y="845" type="line" smooth="yes"/>
      <point x="231" y="845"/>
      <point x="175" y="816"/>
      <point x="162" y="737" type="curve" smooth="yes"/>
      <point x="152" y="668" type="line" smooth="yes"/>
      <point x="150" y="659"/>
      <point x="149" y="650"/>
      <point x="150" y="643" type="curve" smooth="yes"/>
      <point x="150" y="586"/>
      <point x="192" y="563"/>
      <point x="272" y="563" type="curve" smooth="yes"/>
      <point x="311" y="563"/>
      <point x="365" y="565"/>
      <point x="404" y="571" type="curve"/>
      <point x="383" y="463"/>
      <point x="329" y="409"/>
      <point x="254" y="409" type="curve" smooth="yes"/>
      <point x="140" y="409" type="line"/>
      <point x="132" y="360" type="line"/>
      <point x="168" y="355"/>
      <point x="216" y="352"/>
      <point x="255" y="352" type="curve" smooth="yes"/>
      <point x="400" y="352"/>
      <point x="484" y="496"/>
    </contour>
  </outline>
</glyph>
<glyph name="n.superior" format="1">
  <advance width="432"/>
  <unicode hex="207F"/>
  <note>
    GF Latin Plus glyph
  </note>
  <outline>
    <contour>
      <point x="93" y="280" type="line"/>
      <point x="160" y="280" type="line"/>
      <point x="208" y="576" type="line"/>
      <point x="250" y="601"/>
      <point x="285" y="615"/>
      <point x="334" y="615" type="curve" smooth="yes"/>
      <point x="385" y="615"/>
      <point x="402" y="591"/>
      <point x="402" y="558" type="curve" smooth="yes"/>
      <point x="402" y="550"/>
      <point x="401" y="540"/>
      <point x="396" y="507" type="curve" smooth="yes"/>
      <point x="361" y="280" type="line"/>
      <point x="428" y="280" type="line"/>
      <point x="464" y="510" type="line" smooth="yes"/>
      <point x="472" y="556"/>
      <point x="472" y="573"/>
      <point x="472" y="586" type="curve" smooth="yes"/>
      <point x="472" y="638"/>
      <point x="441" y="677"/>
      <point x="369" y="677" type="curve" smooth="yes"/>
      <point x="310" y="677"/>
      <point x="257" y="656"/>
      <point x="215" y="629" type="curve"/>
      <point x="210" y="672" type="line"/>
      <point x="155" y="672" type="line"/>
    </contour>
    <contour>
      <point x="332" y="756" type="move" name="top"/>
    </contour>
    <contour>
      <point x="240" y="170" type="move" name="bottom"/>
    </contour>
  </outline>
</glyph>
<glyph name="franc" format="1">
  <advance width="609"/>
  <unicode hex="20A3"/>
  <note>
    GF Latin Plus glyph
  </note>
  <outline>
    <contour>
      <point x="147" y="0" type="line"/>
      <point x="227" y="0" type="line"/>
      <point x="283" y="354" type="line"/>
      <point x="547" y="359" type="line"/>
      <point x="556" y="420" type="line"/>
      <point x="294" y="425" type="line"/>
      <point x="318" y="576" type="line" smooth="yes"/>
      <point x="327" y="633"/>
      <point x="362" y="663"/>
      <point x="415" y="663" type="curve" smooth="yes"/>
      <point x="638" y="663" type="line"/>
      <point x="648" y="726" type="line"/>
      <point x="620" y="730"/>
      <point x="424" y="736"/>
      <point x="409" y="736" type="curve" smooth="yes"/>
      <point x="337" y="737"/>
      <point x="258" y="701"/>
      <point x="241" y="591" type="curve" smooth="yes"/>
    </contour>
    <contour>
      <point x="84" y="144" type="line"/>
      <point x="169" y="139" type="line"/>
      <point x="248" y="139" type="line"/>
      <point x="508" y="144" type="line"/>
      <point x="516" y="198" type="line"/>
      <point x="259" y="203" type="line"/>
      <point x="180" y="203" type="line"/>
      <point x="93" y="198" type="line"/>
    </contour>
  </outline>
</glyph>
<glyph name="lira" format="1">
  <advance width="609"/>
  <unicode hex="20A4"/>
  <note>
    GF Latin Plus glyph
  </note>
  <outline>
    <contour>
      <point x="63" y="0" type="line"/>
      <point x="544" y="0" type="line"/>
      <point x="555" y="71" type="line"/>
      <point x="263" y="71" type="line"/>
      <point x="290" y="240" type="line"/>
      <point x="504" y="243" type="line"/>
      <point x="510" y="282" type="line"/>
      <point x="297" y="286" type="line"/>
      <point x="311" y="377" type="line"/>
      <point x="526" y="380" type="line"/>
      <point x="532" y="418" type="line"/>
      <point x="318" y="422" type="line"/>
      <point x="335" y="525" type="line" smooth="yes"/>
      <point x="354" y="643"/>
      <point x="403" y="666"/>
      <point x="493" y="666" type="curve" smooth="yes"/>
      <point x="637" y="666" type="line"/>
      <point x="648" y="728" type="line"/>
      <point x="613" y="732"/>
      <point x="557" y="738"/>
      <point x="501" y="738" type="curve" smooth="yes"/>
      <point x="368" y="738"/>
      <point x="282" y="693"/>
      <point x="256" y="524" type="curve" smooth="yes"/>
      <point x="239" y="422" type="line"/>
      <point x="130" y="418" type="line"/>
      <point x="123" y="380" type="line"/>
      <point x="232" y="377" type="line"/>
      <point x="218" y="289" type="line"/>
      <point x="109" y="285" type="line"/>
      <point x="103" y="246" type="line"/>
      <point x="211" y="243" type="line"/>
      <point x="184" y="71" type="line"/>
      <point x="73" y="59" type="line"/>
    </contour>
  </outline>
</glyph>
<glyph name="ruble" format="1">
  <advance width="609"/>
  <unicode hex="20BD"/>
  <note>
    GF Latin Plus glyph
  </note>
  <outline>
    <contour>
      <point x="182" y="118" type="line"/>
      <point x="501" y="118" type="line"/>
      <point x="508" y="164" type="line"/>
      <point x="192" y="164" type="line"/>
    </contour>
    <contour>
      <point x="35" y="118" type="line"/>
      <point x="175" y="118" type="line"/>
      <point x="182" y="164" type="line"/>
      <point x="42" y="164" type="line"/>
    </contour>
    <contour>
      <point x="249" y="349" type="line"/>
      <point x="298" y="664" type="line"/>
      <point x="433" y="664" type="line" smooth="yes"/>
      <point x="515" y="664"/>
      <point x="553" y="637"/>
      <point x="553" y="562" type="curve" smooth="yes"/>
      <point x="553" y="459"/>
      <point x="495" y="349"/>
      <point x="383" y="349" type="curve" smooth="yes"/>
    </contour>
    <contour>
      <point x="117" y="0" type="line"/>
      <point x="193" y="0" type="line"/>
      <point x="239" y="284" type="line"/>
      <point x="245" y="283"/>
      <point x="373" y="280"/>
      <point x="383" y="280" type="curve" smooth="yes"/>
      <point x="552" y="280"/>
      <point x="630" y="433"/>
      <point x="630" y="568" type="curve" smooth="yes"/>
      <point x="630" y="703"/>
      <point x="553" y="736"/>
      <point x="464" y="736" type="curve" smooth="yes"/>
      <point x="234" y="736" type="line"/>
    </contour>
    <contour>
      <point x="65" y="304" type="line"/>
      <point x="201" y="304" type="line"/>
      <point x="208" y="349" type="line"/>
      <point x="72" y="349" type="line"/>
    </contour>
  </outline>
</glyph>
<glyph name="estimated" format="1">
  <advance width="890"/>
  <unicode hex="212E"/>
  <outline>
    <contour>
      <point x="236" y="353" type="curve" smooth="yes"/>
      <point x="236" y="540" type="line" smooth="yes"/>
      <point x="236" y="572"/>
      <point x="345" y="673"/>
      <point x="491" y="673" type="curve" smooth="yes"/>
      <point x="607" y="673"/>
      <point x="749" y="594"/>
      <point x="749" y="536" type="curve" smooth="yes"/>
      <point x="749" y="350" type="line" smooth="yes"/>
      <point x="749" y="336"/>
      <point x="748" y="340"/>
      <point x="731" y="340" type="curve" smooth="yes"/>
      <point x="248" y="340" type="line" smooth="yes"/>
      <point x="241" y="340"/>
      <point x="236" y="340"/>
    </contour>
    <contour>
      <point x="88" y="327" type="curve" smooth="yes"/>
      <point x="88" y="219"/>
      <point x="125" y="132"/>
      <point x="199" y="62" type="curve" smooth="yes"/>
      <point x="273" y="-8"/>
      <point x="366" y="-41"/>
      <point x="492" y="-41" type="curve" smooth="yes"/>
      <point x="576" y="-41"/>
      <point x="617" y="-32"/>
      <point x="674" y="-10" type="curve" smooth="yes"/>
      <point x="728" y="12"/>
      <point x="774" y="50"/>
      <point x="825" y="105" type="curve"/>
      <point x="750" y="105" type="line"/>
      <point x="692" y="39"/>
      <point x="595" y="-13"/>
      <point x="492" y="-13" type="curve" smooth="yes"/>
      <point x="338" y="-13"/>
      <point x="236" y="80"/>
      <point x="236" y="117" type="curve" smooth="yes"/>
      <point x="236" y="301" type="line" smooth="yes"/>
      <point x="236" y="318"/>
      <point x="242" y="317"/>
      <point x="252" y="317" type="curve" smooth="yes"/>
      <point x="898" y="317" type="line"/>
      <point x="893" y="439"/>
      <point x="851" y="542"/>
      <point x="773" y="604" type="curve" smooth="yes"/>
      <point x="694" y="666"/>
      <point x="612" y="698"/>
      <point x="492" y="698" type="curve" smooth="yes"/>
      <point x="361" y="698"/>
      <point x="274" y="661"/>
      <point x="199" y="591" type="curve" smooth="yes"/>
      <point x="124" y="521"/>
      <point x="88" y="434"/>
    </contour>
  </outline>
</glyph>
<glyph name="partialdiff" format="1">
  <advance width="658"/>
  <unicode hex="2202"/>
  <outline>
    <contour>
      <point x="382" y="378" type="curve" smooth="yes"/>
      <point x="443" y="378"/>
      <point x="519" y="356"/>
      <point x="545" y="341" type="curve"/>
      <point x="534" y="256"/>
      <point x="488" y="67"/>
      <point x="332" y="67" type="curve" smooth="yes"/>
      <point x="253" y="67"/>
      <point x="185" y="114"/>
      <point x="185" y="208" type="curve" smooth="yes"/>
      <point x="185" y="307"/>
      <point x="249" y="378"/>
    </contour>
    <contour>
      <point x="106" y="196" type="curve" smooth="yes"/>
      <point x="106" y="63"/>
      <point x="200" y="-5"/>
      <point x="323" y="-5" type="curve" smooth="yes"/>
      <point x="552" y="-5"/>
      <point x="641" y="268"/>
      <point x="641" y="480" type="curve" smooth="yes"/>
      <point x="641" y="642"/>
      <point x="576" y="740"/>
      <point x="417" y="740" type="curve" smooth="yes"/>
      <point x="333" y="740"/>
      <point x="266" y="715"/>
      <point x="200" y="671" type="curve"/>
      <point x="205" y="613" type="line"/>
      <point x="253" y="641"/>
      <point x="317" y="669"/>
      <point x="393" y="669" type="curve" smooth="yes"/>
      <point x="519" y="669"/>
      <point x="562" y="598"/>
      <point x="562" y="480" type="curve" smooth="yes"/>
      <point x="562" y="454"/>
      <point x="560" y="427"/>
      <point x="557" y="397" type="curve"/>
      <point x="505" y="436"/>
      <point x="428" y="448"/>
      <point x="377" y="448" type="curve" smooth="yes"/>
      <point x="199" y="448"/>
      <point x="106" y="344"/>
    </contour>
  </outline>
</glyph>
<glyph name="emptyset" format="1">
  <advance width="609"/>
  <unicode hex="2205"/>
  <outline>
    <contour>
      <point x="615" y="607" type="line"/>
      <point x="62" y="-36" type="line"/>
      <point x="89" y="-63" type="line"/>
      <point x="641" y="581" type="line"/>
    </contour>
    <contour>
      <point x="197" y="230" type="curve" smooth="yes"/>
      <point x="197" y="303" type="line" smooth="yes"/>
      <point x="197" y="421"/>
      <point x="250" y="469"/>
      <point x="319" y="469" type="curve" smooth="yes"/>
      <point x="383" y="469" type="line" smooth="yes"/>
      <point x="452" y="469"/>
      <point x="506" y="421"/>
      <point x="506" y="303" type="curve" smooth="yes"/>
      <point x="506" y="230" type="line" smooth="yes"/>
      <point x="506" y="111"/>
      <point x="452" y="64"/>
      <point x="383" y="64" type="curve" smooth="yes"/>
      <point x="319" y="64" type="line" smooth="yes"/>
      <point x="250" y="64"/>
      <point x="197" y="111"/>
    </contour>
    <contour>
      <point x="118" y="226" type="line" smooth="yes"/>
      <point x="118" y="100"/>
      <point x="180" y="-6"/>
      <point x="317" y="-6" type="curve" smooth="yes"/>
      <point x="386" y="-6" type="line" smooth="yes"/>
      <point x="523" y="-6"/>
      <point x="585" y="100"/>
      <point x="585" y="226" type="curve" smooth="yes"/>
      <point x="585" y="307" type="line" smooth="yes"/>
      <point x="585" y="433"/>
      <point x="523" y="539"/>
      <point x="386" y="539" type="curve" smooth="yes"/>
      <point x="317" y="539" type="line" smooth="yes"/>
      <point x="180" y="539"/>
      <point x="118" y="433"/>
      <point x="118" y="307" type="curve" smooth="yes"/>
    </contour>
  </outline>
</glyph>
<glyph name="product" format="1">
  <advance width="604"/>
  <unicode hex="220F"/>
  <outline>
    <contour>
      <point x="97" y="0" type="line"/>
      <point x="176" y="0" type="line"/>
      <point x="281" y="664" type="line"/>
      <point x="529" y="664" type="line"/>
      <point x="424" y="0" type="line"/>
      <point x="503" y="0" type="line"/>
      <point x="608" y="664" type="line"/>
      <point x="688" y="664" type="line"/>
      <point x="700" y="736" type="line"/>
      <point x="134" y="736" type="line"/>
      <point x="122" y="664" type="line"/>
      <point x="201" y="664" type="line"/>
    </contour>
  </outline>
</glyph>
<glyph name="radical" format="1">
  <advance width="590"/>
  <unicode hex="221A"/>
  <outline>
    <contour>
      <point x="57" y="292" type="line"/>
      <point x="135" y="292" type="line"/>
      <point x="221" y="0" type="line"/>
      <point x="296" y="0" type="line"/>
      <point x="716" y="800" type="line"/>
      <point x="631" y="800" type="line"/>
      <point x="270" y="113" type="line"/>
      <point x="200" y="364" type="line"/>
      <point x="69" y="364" type="line"/>
    </contour>
  </outline>
</glyph>
<glyph name="integral" format="1">
  <advance width="404"/>
  <unicode hex="222B"/>
  <outline>
    <contour>
      <point x="-11" y="-190" type="line"/>
      <point x="12" y="-198"/>
      <point x="51" y="-204"/>
      <point x="92" y="-204" type="curve" smooth="yes"/>
      <point x="202" y="-204"/>
      <point x="242" y="-127"/>
      <point x="260" y="-10" type="curve" smooth="yes"/>
      <point x="351" y="558" type="line" smooth="yes"/>
      <point x="362" y="631"/>
      <point x="389" y="737"/>
      <point x="470" y="737" type="curve" smooth="yes"/>
      <point x="543" y="737" type="line"/>
      <point x="551" y="786" type="line"/>
      <point x="534" y="791"/>
      <point x="507" y="800"/>
      <point x="450" y="800" type="curve" smooth="yes"/>
      <point x="335" y="800"/>
      <point x="291" y="685"/>
      <point x="275" y="584" type="curve" smooth="yes"/>
      <point x="186" y="19" type="line" smooth="yes"/>
      <point x="170" y="-85"/>
      <point x="142" y="-141"/>
      <point x="74" y="-141" type="curve" smooth="yes"/>
      <point x="-4" y="-141" type="line"/>
    </contour>
  </outline>
</glyph>
<glyph name="fi" format="1">
  <advance width="589"/>
  <unicode hex="FB01"/>
  <note>
    GF Latin Plus glyph
  </note>
  <outline>
    <contour>
      <point x="99" y="467" type="line"/>
      <point x="181" y="467" type="line"/>
      <point x="107" y="0" type="line"/>
      <point x="186" y="0" type="line"/>
      <point x="260" y="467" type="line"/>
      <point x="556" y="467" type="line"/>
      <point x="567" y="534" type="line"/>
      <point x="271" y="534" type="line"/>
      <point x="281" y="598" type="line" smooth="yes"/>
      <point x="291" y="665"/>
      <point x="309" y="705"/>
      <point x="379" y="705" type="curve" smooth="yes"/>
      <point x="478" y="705" type="line"/>
      <point x="487" y="762" type="line"/>
      <point x="455" y="766"/>
      <point x="410" y="769"/>
      <point x="369" y="769" type="curve" smooth="yes"/>
      <point x="245" y="769"/>
      <point x="218" y="691"/>
      <point x="205" y="616" type="curve" smooth="yes"/>
      <point x="191" y="534" type="line"/>
      <point x="108" y="518" type="line"/>
    </contour>
    <component base="i" xOffset="373"/>
  </outline>
</glyph>
<glyph name="f_f_i" format="1">
  <advance width="962"/>
  <unicode hex="FB03"/>
  <note>
    GF Latin Plus glyph
  </note>
  <outline>
    <contour>
      <point x="99" y="467" type="line"/>
      <point x="181" y="467" type="line"/>
      <point x="107" y="0" type="line"/>
      <point x="186" y="0" type="line"/>
      <point x="260" y="467" type="line"/>
      <point x="595" y="467" type="line"/>
      <point x="606" y="534" type="line"/>
      <point x="271" y="534" type="line"/>
      <point x="281" y="598" type="line" smooth="yes"/>
      <point x="291" y="665"/>
      <point x="309" y="705"/>
      <point x="379" y="705" type="curve" smooth="yes"/>
      <point x="478" y="705" type="line"/>
      <point x="487" y="762" type="line"/>
      <point x="455" y="766"/>
      <point x="410" y="769"/>
      <point x="369" y="769" type="curve" smooth="yes"/>
      <point x="245" y="769"/>
      <point x="218" y="691"/>
      <point x="205" y="616" type="curve" smooth="yes"/>
      <point x="191" y="534" type="line"/>
      <point x="108" y="518" type="line"/>
    </contour>
    <component base="fi" xOffset="373"/>
  </outline>
</glyph>
<glyph name="D.smcp" format="1">
  <advance width="569"/>
  <note>
    GF Latin Plus glyph
  </note>
  <outline>
    <contour>
      <point x="154" y="65" type="line"/>
      <point x="222" y="495" type="line"/>
      <point x="355" y="495" type="line" smooth="yes"/>
      <point x="454" y="495"/>
      <point x="486" y="450"/>
      <point x="486" y="364" type="curve" smooth="yes"/>
      <point x="486" y="342"/>
      <point x="484" y="314"/>
      <point x="478" y="274" type="curve" smooth="yes"/>
      <point x="459" y="154"/>
      <point x="408" y="65"/>
      <point x="291" y="65" type="curve" smooth="yes"/>
    </contour>
    <contour>
      <point x="68" y="0" type="line"/>
      <point x="286" y="0" type="line" smooth="yes"/>
      <point x="448" y="0"/>
      <point x="528" y="100"/>
      <point x="554" y="266" type="curve" smooth="yes"/>
      <point x="560" y="299"/>
      <point x="563" y="332"/>
      <point x="563" y="365" type="curve" smooth="yes"/>
      <point x="562" y="487"/>
      <point x="517" y="560"/>
      <point x="373" y="560" type="curve" smooth="yes"/>
      <point x="157" y="560" type="line"/>
    </contour>
    <contour>
      <point x="364" y="650" type="move" name="top"/>
    </contour>
    <contour>
      <point x="228" y="-150" type="move" name="bottom"/>
    </contour>
  </outline>
</glyph>
<glyph name="F.smcp" format="1">
  <advance width="472"/>
  <note>
    GF Latin Plus glyph
  </note>
  <outline>
    <contour>
      <point x="68" y="0" type="line"/>
      <point x="144" y="0" type="line"/>
      <point x="182" y="237" type="line"/>
      <point x="435" y="241" type="line"/>
      <point x="444" y="296" type="line"/>
      <point x="192" y="302" type="line"/>
      <point x="211" y="428" type="line" smooth="yes"/>
      <point x="219" y="474"/>
      <point x="241" y="494"/>
      <point x="287" y="494" type="curve" smooth="yes"/>
      <point x="511" y="494" type="line"/>
      <point x="520" y="552" type="line"/>
      <point x="488" y="555"/>
      <point x="317" y="560"/>
      <point x="278" y="560" type="curve" smooth="yes"/>
      <point x="216" y="561"/>
      <point x="154" y="539"/>
      <point x="139" y="443" type="curve" smooth="yes"/>
    </contour>
    <contour>
      <point x="358" y="650" type="move" name="top"/>
    </contour>
  </outline>
</glyph>
<glyph name="G.smcp" format="1">
  <advance width="541"/>
  <note>
    GF Latin Plus glyph
  </note>
  <outline>
    <contour>
      <point x="104" y="297" type="curve" smooth="yes"/>
      <point x="97" y="252"/>
      <point x="91" y="210"/>
      <point x="92" y="169" type="curve" smooth="yes"/>
      <point x="93" y="49"/>
      <point x="136" y="-5"/>
      <point x="248" y="-5" type="curve" smooth="yes"/>
      <point x="305" y="-5"/>
      <point x="391" y="23"/>
      <point x="420" y="39" type="curve"/>
      <point x="426" y="0" type="line"/>
      <point x="482" y="0" type="line"/>
      <point x="529" y="302" type="line"/>
      <point x="511" y="303"/>
      <point x="478" y="304"/>
      <point x="456" y="304" type="curve" smooth="yes"/>
      <point x="393" y="304"/>
      <point x="349" y="301"/>
      <point x="320" y="298" type="curve"/>
      <point x="311" y="243" type="line"/>
      <point x="447" y="243" type="line"/>
      <point x="422" y="88" type="line"/>
      <point x="395" y="78"/>
      <point x="321" y="62"/>
      <point x="272" y="62" type="curve" smooth="yes"/>
      <point x="199" y="62"/>
      <point x="170" y="97"/>
      <point x="169" y="172" type="curve" smooth="yes"/>
      <point x="169" y="200"/>
      <point x="172" y="236"/>
      <point x="179" y="279" type="curve" smooth="yes"/>
      <point x="202" y="428"/>
      <point x="243" y="501"/>
      <point x="360" y="501" type="curve" smooth="yes"/>
      <point x="437" y="501"/>
      <point x="498" y="494"/>
      <point x="539" y="486" type="curve"/>
      <point x="547" y="541" type="line"/>
      <point x="499" y="554"/>
      <point x="443" y="565"/>
      <point x="352" y="565" type="curve" smooth="yes"/>
      <point x="202" y="565"/>
      <point x="130" y="465"/>
    </contour>
    <contour>
      <point x="378" y="650" type="move" name="top"/>
    </contour>
    <contour>
      <point x="243" y="-150" type="move" name="bottom"/>
    </contour>
  </outline>
</glyph>
<glyph name="J.smcp" format="1">
  <advance width="314"/>
  <note>
    GF Latin Plus glyph
  </note>
  <outline>
    <contour>
      <point x="38" y="13" type="line"/>
      <point x="57" y="3"/>
      <point x="91" y="-5"/>
      <point x="127" y="-5" type="curve" smooth="yes"/>
      <point x="218" y="-5"/>
      <point x="265" y="35"/>
      <point x="281" y="133" type="curve" smooth="yes"/>
      <point x="349" y="560" type="line"/>
      <point x="273" y="560" type="line"/>
      <point x="207" y="147" type="line" smooth="yes"/>
      <point x="197" y="88"/>
      <point x="167" y="62"/>
      <point x="114" y="61" type="curve" smooth="yes"/>
      <point x="98" y="61"/>
      <point x="63" y="63"/>
      <point x="47" y="69" type="curve"/>
    </contour>
    <contour>
      <point x="329" y="650" type="move" name="top"/>
    </contour>
  </outline>
</glyph>
<glyph name="L.smcp" format="1">
  <advance width="448"/>
  <note>
    GF Latin Plus glyph
  </note>
  <outline>
    <contour>
      <point x="87" y="119" type="line" smooth="yes"/>
      <point x="85" y="108"/>
      <point x="84" y="99"/>
      <point x="85" y="88" type="curve" smooth="yes"/>
      <point x="85" y="23"/>
      <point x="127" y="0"/>
      <point x="193" y="0" type="curve" smooth="yes"/>
      <point x="417" y="0" type="line"/>
      <point x="427" y="65" type="line"/>
      <point x="220" y="65" type="line" smooth="yes"/>
      <point x="187" y="65"/>
      <point x="163" y="73"/>
      <point x="163" y="108" type="curve" smooth="yes"/>
      <point x="163" y="115"/>
      <point x="163" y="122"/>
      <point x="165" y="132" type="curve" smooth="yes"/>
      <point x="233" y="560" type="line"/>
      <point x="157" y="560" type="line"/>
    </contour>
    <contour>
      <point x="216" y="650" type="move" name="top"/>
    </contour>
    <contour>
      <point x="278" y="457" type="move" name="altcaron"/>
    </contour>
    <contour>
      <point x="208" y="-150" type="move" name="bottom"/>
    </contour>
  </outline>
</glyph>
<glyph name="Lslash.smcp" format="1">
  <advance width="448"/>
  <note>
    GF Latin Plus glyph
  </note>
  <outline>
    <contour>
      <point x="48" y="237" type="line"/>
      <point x="122" y="265" type="line"/>
      <point x="182" y="281" type="line"/>
      <point x="306" y="328" type="line"/>
      <point x="313" y="369" type="line"/>
      <point x="189" y="321" type="line"/>
      <point x="128" y="306" type="line"/>
      <point x="54" y="278" type="line"/>
    </contour>
    <component base="L.smcp"/>
  </outline>
</glyph>
<glyph name="M.salt" format="1">
  <advance width="841"/>
  <outline>
    <contour>
      <point x="57" y="0" type="line"/>
      <point x="134" y="0" type="line"/>
      <point x="276" y="623" type="line" smooth="yes"/>
      <point x="284" y="658"/>
      <point x="301" y="668"/>
      <point x="320" y="668" type="curve" smooth="yes"/>
      <point x="334" y="668"/>
      <point x="345" y="656"/>
      <point x="348" y="632" type="curve" smooth="yes"/>
      <point x="385" y="260" type="line" smooth="yes"/>
      <point x="388" y="213"/>
      <point x="414" y="186"/>
      <point x="456" y="186" type="curve" smooth="yes"/>
      <point x="495" y="186"/>
      <point x="533" y="208"/>
      <point x="552" y="260" type="curve" smooth="yes"/>
      <point x="698" y="632" type="line" smooth="yes"/>
      <point x="708" y="656"/>
      <point x="721" y="668"/>
      <point x="734" y="668" type="curve" smooth="yes"/>
      <point x="745" y="668"/>
      <point x="754" y="662"/>
      <point x="754" y="632" type="curve" smooth="yes"/>
      <point x="754" y="629"/>
      <point x="754" y="627"/>
      <point x="754" y="624" type="curve" smooth="yes"/>
      <point x="701" y="0" type="line"/>
      <point x="778" y="0" type="line"/>
      <point x="831" y="634" type="line" smooth="yes"/>
      <point x="832" y="641"/>
      <point x="832" y="647"/>
      <point x="832" y="654" type="curve" smooth="yes"/>
      <point x="832" y="726"/>
      <point x="799" y="746"/>
      <point x="752" y="746" type="curve" smooth="yes"/>
      <point x="706" y="746"/>
      <point x="665" y="723"/>
      <point x="642" y="653" type="curve" smooth="yes"/>
      <point x="503" y="298" type="line" smooth="yes"/>
      <point x="496" y="278"/>
      <point x="484" y="270"/>
      <point x="470" y="270" type="curve" smooth="yes"/>
      <point x="457" y="270"/>
      <point x="448" y="277"/>
      <point x="446" y="298" type="curve" smooth="yes"/>
      <point x="410" y="652" type="line" smooth="yes"/>
      <point x="407" y="713"/>
      <point x="379" y="746"/>
      <point x="325" y="746" type="curve" smooth="yes"/>
      <point x="272" y="746"/>
      <point x="221" y="719"/>
      <point x="202" y="632" type="curve" smooth="yes"/>
    </contour>
    <contour>
      <point x="542" y="810" type="move" name="top"/>
    </contour>
    <contour>
      <point x="390" y="-150" type="move" name="bottom"/>
    </contour>
  </outline>
</glyph>
<glyph name="M.salt.smcp" format="1">
  <advance width="708"/>
  <outline>
    <contour>
      <point x="56" y="0" type="line"/>
      <point x="129" y="0" type="line"/>
      <point x="236" y="465" type="line" smooth="yes"/>
      <point x="241" y="489"/>
      <point x="254" y="497"/>
      <point x="267" y="497" type="curve" smooth="yes"/>
      <point x="279" y="497"/>
      <point x="287" y="489"/>
      <point x="289" y="468" type="curve" smooth="yes"/>
      <point x="317" y="197" type="line" smooth="yes"/>
      <point x="320" y="158"/>
      <point x="344" y="136"/>
      <point x="381" y="136" type="curve" smooth="yes"/>
      <point x="416" y="136"/>
      <point x="448" y="153"/>
      <point x="464" y="197" type="curve" smooth="yes"/>
      <point x="574" y="471" type="line" smooth="yes"/>
      <point x="581" y="489"/>
      <point x="591" y="498"/>
      <point x="600" y="498" type="curve" smooth="yes"/>
      <point x="609" y="498"/>
      <point x="615" y="493"/>
      <point x="615" y="473" type="curve" smooth="yes"/>
      <point x="615" y="471"/>
      <point x="615" y="466"/>
      <point x="614" y="460" type="curve" smooth="yes"/>
      <point x="576" y="0" type="line"/>
      <point x="650" y="0" type="line"/>
      <point x="689" y="479" type="line" smooth="yes"/>
      <point x="689" y="483"/>
      <point x="689" y="488"/>
      <point x="689" y="494" type="curve" smooth="yes"/>
      <point x="689" y="552"/>
      <point x="658" y="568"/>
      <point x="618" y="568" type="curve" smooth="yes"/>
      <point x="576" y="568"/>
      <point x="538" y="551"/>
      <point x="520" y="491" type="curve" smooth="yes"/>
      <point x="418" y="233" type="line" smooth="yes"/>
      <point x="413" y="217"/>
      <point x="404" y="211"/>
      <point x="394" y="211" type="curve" smooth="yes"/>
      <point x="383" y="211"/>
      <point x="376" y="217"/>
      <point x="375" y="235" type="curve" smooth="yes"/>
      <point x="347" y="490" type="line" smooth="yes"/>
      <point x="346" y="540"/>
      <point x="320" y="569"/>
      <point x="270" y="569" type="curve" smooth="yes"/>
      <point x="223" y="569"/>
      <point x="181" y="547"/>
      <point x="166" y="477" type="curve" smooth="yes"/>
    </contour>
    <contour>
      <point x="449" y="650" type="move" name="top"/>
    </contour>
    <contour>
      <point x="329" y="-150" type="move" name="bottom"/>
    </contour>
  </outline>
</glyph>
<glyph name="Omega" format="1">
  <advance width="779"/>
  <outline>
    <contour>
      <point x="126" y="333" type="curve" smooth="yes"/>
      <point x="126" y="237"/>
      <point x="174" y="140"/>
      <point x="248" y="71" type="curve"/>
      <point x="68" y="62" type="line"/>
      <point x="58" y="0" type="line"/>
      <point x="317" y="0" type="line"/>
      <point x="328" y="69" type="line"/>
      <point x="255" y="145"/>
      <point x="205" y="226"/>
      <point x="205" y="324" type="curve" smooth="yes"/>
      <point x="205" y="481"/>
      <point x="280" y="668"/>
      <point x="488" y="668" type="curve" smooth="yes"/>
      <point x="640" y="668"/>
      <point x="697" y="574"/>
      <point x="697" y="468" type="curve" smooth="yes"/>
      <point x="697" y="339"/>
      <point x="640" y="177"/>
      <point x="475" y="69" type="curve"/>
      <point x="464" y="0" type="line"/>
      <point x="724" y="0" type="line"/>
      <point x="734" y="62" type="line"/>
      <point x="558" y="70" type="line"/>
      <point x="711" y="177"/>
      <point x="778" y="346"/>
      <point x="778" y="481" type="curve" smooth="yes"/>
      <point x="778" y="621"/>
      <point x="695" y="739"/>
      <point x="496" y="739" type="curve" smooth="yes"/>
      <point x="226" y="739"/>
      <point x="126" y="516"/>
    </contour>
  </outline>
</glyph>
<glyph name="P.smcp" format="1">
  <advance width="509"/>
  <note>
    GF Latin Plus glyph
  </note>
  <outline>
    <contour>
      <point x="185" y="264" type="line"/>
      <point x="222" y="495" type="line"/>
      <point x="371" y="495" type="line" smooth="yes"/>
      <point x="420" y="495"/>
      <point x="448" y="475"/>
      <point x="449" y="423" type="curve" smooth="yes"/>
      <point x="449" y="411"/>
      <point x="447" y="393"/>
      <point x="445" y="377" type="curve" smooth="yes"/>
      <point x="431" y="291"/>
      <point x="385" y="264"/>
      <point x="328" y="264" type="curve" smooth="yes"/>
    </contour>
    <contour>
      <point x="68" y="0" type="line"/>
      <point x="144" y="0" type="line"/>
      <point x="177" y="209" type="line"/>
      <point x="221" y="204"/>
      <point x="285" y="199"/>
      <point x="338" y="199" type="curve" smooth="yes"/>
      <point x="415" y="199"/>
      <point x="499" y="235"/>
      <point x="520" y="365" type="curve" smooth="yes"/>
      <point x="523" y="389"/>
      <point x="526" y="413"/>
      <point x="526" y="430" type="curve" smooth="yes"/>
      <point x="525" y="531"/>
      <point x="464" y="560"/>
      <point x="385" y="560" type="curve" smooth="yes"/>
      <point x="157" y="560" type="line"/>
    </contour>
    <contour>
      <point x="343" y="650" type="move" name="top"/>
    </contour>
  </outline>
</glyph>
<glyph name="W.salt.smcp" format="1">
  <advance width="843"/>
  <outline>
    <contour>
      <point x="125" y="560" type="line"/>
      <point x="222" y="0" type="line"/>
      <point x="322" y="0" type="line"/>
      <point x="465" y="279" type="line"/>
      <point x="525" y="0" type="line"/>
      <point x="624" y="0" type="line"/>
      <point x="895" y="560" type="line"/>
      <point x="818" y="560" type="line"/>
      <point x="583" y="80" type="line"/>
      <point x="518" y="380" type="line"/>
      <point x="603" y="560" type="line"/>
      <point x="524" y="560" type="line"/>
      <point x="290" y="80" type="line"/>
      <point x="204" y="560" type="line"/>
    </contour>
    <contour>
      <point x="542" y="650" type="move" name="top"/>
    </contour>
  </outline>
</glyph>
<glyph name="Y.smcp" format="1">
  <advance width="523"/>
  <note>
    GF Latin Plus glyph
  </note>
  <outline>
    <contour>
      <point x="118" y="560" type="line"/>
      <point x="245" y="178" type="line"/>
      <point x="217" y="0" type="line"/>
      <point x="293" y="0" type="line"/>
      <point x="321" y="178" type="line"/>
      <point x="582" y="560" type="line"/>
      <point x="496" y="560" type="line"/>
      <point x="294" y="258" type="line"/>
      <point x="201" y="560" type="line"/>
    </contour>
    <contour>
      <point x="357" y="650" type="move" name="top"/>
    </contour>
    <contour>
      <point x="231" y="-150" type="move" name="bottom"/>
    </contour>
  </outline>
</glyph>
<glyph name="Z.smcp" format="1">
  <advance width="477"/>
  <note>
    GF Latin Plus glyph
  </note>
  <outline>
    <contour>
      <point x="43" y="0" type="line"/>
      <point x="433" y="0" type="line"/>
      <point x="444" y="65" type="line"/>
      <point x="141" y="65" type="line"/>
      <point x="504" y="499" type="line"/>
      <point x="513" y="560" type="line"/>
      <point x="132" y="560" type="line"/>
      <point x="121" y="495" type="line"/>
      <point x="416" y="495" type="line"/>
      <point x="53" y="61" type="line"/>
    </contour>
    <contour>
      <point x="333" y="650" type="move" name="top"/>
    </contour>
    <contour>
      <point x="210" y="-150" type="move" name="bottom"/>
    </contour>
  </outline>
</glyph>
<glyph name="at.smcp" format="1">
  <advance width="763"/>
  <note>
    GF Latin Plus glyph
  </note>
  <outline>
    <contour>
      <point x="427" y="362" type="curve" smooth="yes"/>
      <point x="462" y="362"/>
      <point x="492" y="357"/>
      <point x="529" y="339" type="curve"/>
      <point x="493" y="95" type="line"/>
      <point x="450" y="63"/>
      <point x="402" y="55"/>
      <point x="358" y="55" type="curve" smooth="yes"/>
      <point x="317" y="55"/>
      <point x="277" y="75"/>
      <point x="276" y="150" type="curve" smooth="yes"/>
      <point x="276" y="280"/>
      <point x="344" y="362"/>
    </contour>
    <contour>
      <point x="58" y="23" type="line" smooth="yes"/>
      <point x="57" y="11"/>
      <point x="55" y="-2"/>
      <point x="55" y="-12" type="curve" smooth="yes"/>
      <point x="56" y="-85"/>
      <point x="101" y="-142"/>
      <point x="203" y="-142" type="curve" smooth="yes"/>
      <point x="279" y="-142" type="line" smooth="yes"/>
      <point x="380" y="-142"/>
      <point x="473" y="-136"/>
      <point x="513" y="-129" type="curve"/>
      <point x="519" y="-89" type="line"/>
      <point x="209" y="-89" type="line" smooth="yes"/>
      <point x="150" y="-89"/>
      <point x="117" y="-58"/>
      <point x="116" y="-9" type="curve" smooth="yes"/>
      <point x="116" y="-1"/>
      <point x="118" y="10"/>
      <point x="119" y="22" type="curve" smooth="yes"/>
      <point x="177" y="383" type="line" smooth="yes"/>
      <point x="185" y="438"/>
      <point x="213" y="491"/>
      <point x="302" y="491" type="curve" smooth="yes"/>
      <point x="602" y="491" type="line" smooth="yes"/>
      <point x="655" y="491"/>
      <point x="694" y="472"/>
      <point x="694" y="416" type="curve" smooth="yes"/>
      <point x="694" y="406"/>
      <point x="693" y="396"/>
      <point x="691" y="383" type="curve" smooth="yes"/>
      <point x="655" y="146" type="line" smooth="yes"/>
      <point x="642" y="63"/>
      <point x="585" y="53"/>
      <point x="547" y="53" type="curve"/>
      <point x="594" y="365" type="line"/>
      <point x="555" y="397"/>
      <point x="499" y="415"/>
      <point x="431" y="415" type="curve" smooth="yes"/>
      <point x="312" y="415"/>
      <point x="215" y="313"/>
      <point x="216" y="138" type="curve" smooth="yes"/>
      <point x="217" y="35"/>
      <point x="272" y="-2"/>
      <point x="342" y="-2" type="curve" smooth="yes"/>
      <point x="396" y="-2"/>
      <point x="466" y="27"/>
      <point x="488" y="51" type="curve"/>
      <point x="498" y="3" type="line"/>
      <point x="550" y="3" type="line" smooth="yes"/>
      <point x="661" y="3"/>
      <point x="706" y="79"/>
      <point x="715" y="136" type="curve" smooth="yes"/>
      <point x="751" y="378" type="line" smooth="yes"/>
      <point x="753" y="393"/>
      <point x="754" y="407"/>
      <point x="754" y="422" type="curve" smooth="yes"/>
      <point x="753" y="495"/>
      <point x="709" y="544"/>
      <point x="617" y="544" type="curve" smooth="yes"/>
      <point x="312" y="544" type="line" smooth="yes"/>
      <point x="195" y="544"/>
      <point x="134" y="496"/>
      <point x="118" y="396" type="curve" smooth="yes"/>
    </contour>
  </outline>
</glyph>
<glyph name="braceleft.smcp" format="1">
  <advance width="275"/>
  <note>
    GF Latin Plus glyph
  </note>
  <outline>
    <contour>
      <point x="79" y="220" type="line"/>
      <point x="118" y="220"/>
      <point x="135" y="207"/>
      <point x="135" y="177" type="curve" smooth="yes"/>
      <point x="135" y="154"/>
      <point x="98" y="-28"/>
      <point x="98" y="-67" type="curve" smooth="yes"/>
      <point x="98" y="-124"/>
      <point x="131" y="-160"/>
      <point x="237" y="-160" type="curve"/>
      <point x="245" y="-105" type="line"/>
      <point x="199" y="-105"/>
      <point x="177" y="-90"/>
      <point x="177" y="-47" type="curve" smooth="yes"/>
      <point x="177" y="-20"/>
      <point x="213" y="170"/>
      <point x="213" y="194" type="curve" smooth="yes"/>
      <point x="213" y="225"/>
      <point x="191" y="248"/>
      <point x="150" y="254" type="curve"/>
      <point x="192" y="258"/>
      <point x="227" y="281"/>
      <point x="234" y="326" type="curve" smooth="yes"/>
      <point x="259" y="486" type="line" smooth="yes"/>
      <point x="272" y="566"/>
      <point x="299" y="582"/>
      <point x="354" y="582" type="curve"/>
      <point x="364" y="640" type="line"/>
      <point x="246" y="640"/>
      <point x="201" y="598"/>
      <point x="185" y="499" type="curve" smooth="yes"/>
      <point x="159" y="337" type="line" smooth="yes"/>
      <point x="154" y="299"/>
      <point x="117" y="290"/>
      <point x="89" y="287" type="curve"/>
    </contour>
  </outline>
</glyph>
<glyph name="brevebelowcomb" format="1">
  <note>
    GF Latin Plus glyph
  </note>
  <outline>
    <contour>
      <point x="-379" y="-80" type="line"/>
      <point x="-380" y="-93"/>
      <point x="-381" y="-105"/>
      <point x="-381" y="-116" type="curve" smooth="yes"/>
      <point x="-381" y="-193"/>
      <point x="-333" y="-221"/>
      <point x="-271" y="-221" type="curve" smooth="yes"/>
      <point x="-199" y="-221"/>
      <point x="-132" y="-187"/>
      <point x="-116" y="-80" type="curve"/>
      <point x="-155" y="-80" type="line"/>
      <point x="-167" y="-157"/>
      <point x="-214" y="-184"/>
      <point x="-266" y="-184" type="curve" smooth="yes"/>
      <point x="-308" y="-184"/>
      <point x="-342" y="-162"/>
      <point x="-342" y="-106" type="curve" smooth="yes"/>
      <point x="-342" y="-98"/>
      <point x="-341" y="-89"/>
      <point x="-340" y="-80" type="curve"/>
    </contour>
    <contour>
      <point x="-269" y="-150" type="move" name="_bottom"/>
    </contour>
  </outline>
</glyph>
<glyph name="brevecomb_gravecomb" format="1">
  <outline>
    <contour>
      <point x="-398" y="734" type="line"/>
      <point x="-399" y="726"/>
      <point x="-400" y="718"/>
      <point x="-400" y="710" type="curve" smooth="yes"/>
      <point x="-400" y="646"/>
      <point x="-348" y="622"/>
      <point x="-285" y="622" type="curve" smooth="yes"/>
      <point x="-213" y="622"/>
      <point x="-148" y="649"/>
      <point x="-135" y="734" type="curve"/>
      <point x="-174" y="734" type="line"/>
      <point x="-184" y="669"/>
      <point x="-239" y="657"/>
      <point x="-281" y="657" type="curve" smooth="yes"/>
      <point x="-324" y="657"/>
      <point x="-360" y="674"/>
      <point x="-360" y="719" type="curve" smooth="yes"/>
      <point x="-360" y="723"/>
      <point x="-360" y="728"/>
      <point x="-359" y="734" type="curve"/>
    </contour>
    <component base="gravecomb" xOffset="-3" yOffset="110"/>
    <contour>
      <point x="-269" y="650" type="move" name="_top"/>
    </contour>
  </outline>
</glyph>
<glyph name="brevecomb_tildecomb" format="1">
  <outline>
    <contour>
      <point x="-407" y="734" type="line"/>
      <point x="-408" y="726"/>
      <point x="-409" y="718"/>
      <point x="-409" y="710" type="curve" smooth="yes"/>
      <point x="-409" y="646"/>
      <point x="-357" y="622"/>
      <point x="-294" y="622" type="curve" smooth="yes"/>
      <point x="-222" y="622"/>
      <point x="-157" y="649"/>
      <point x="-144" y="734" type="curve"/>
      <point x="-183" y="734" type="line"/>
      <point x="-194" y="669"/>
      <point x="-245" y="657"/>
      <point x="-291" y="657" type="curve" smooth="yes"/>
      <point x="-334" y="657"/>
      <point x="-370" y="674"/>
      <point x="-370" y="718" type="curve" smooth="yes"/>
      <point x="-370" y="723"/>
      <point x="-370" y="728"/>
      <point x="-369" y="734" type="curve"/>
    </contour>
    <contour>
      <point x="-430" y="769" type="curve"/>
      <point x="-389" y="769" type="line"/>
      <point x="-384" y="798"/>
      <point x="-358" y="812"/>
      <point x="-330" y="812" type="curve" smooth="yes"/>
      <point x="-283" y="812"/>
      <point x="-246" y="770"/>
      <point x="-193" y="770" type="curve" smooth="yes"/>
      <point x="-138" y="770"/>
      <point x="-102" y="796"/>
      <point x="-90" y="854" type="curve"/>
      <point x="-131" y="854" type="line"/>
      <point x="-135" y="825"/>
      <point x="-160" y="810"/>
      <point x="-191" y="810" type="curve" smooth="yes"/>
      <point x="-238" y="810"/>
      <point x="-271" y="852"/>
      <point x="-328" y="852" type="curve" smooth="yes"/>
      <point x="-370" y="852"/>
      <point x="-416" y="835"/>
    </contour>
    <contour>
      <point x="-283" y="650" type="move" name="_top"/>
    </contour>
  </outline>
</glyph>
<glyph name="breveinvertedcomb" format="1">
  <note>
    GF Latin Plus glyph
  </note>
  <outline>
    <contour>
      <point x="-142" y="630" type="line"/>
      <point x="-141" y="643"/>
      <point x="-139" y="655"/>
      <point x="-139" y="666" type="curve" smooth="yes"/>
      <point x="-139" y="743"/>
      <point x="-188" y="771"/>
      <point x="-250" y="771" type="curve" smooth="yes"/>
      <point x="-322" y="771"/>
      <point x="-388" y="737"/>
      <point x="-405" y="630" type="curve"/>
      <point x="-366" y="630" type="line"/>
      <point x="-354" y="707"/>
      <point x="-305" y="734"/>
      <point x="-256" y="734" type="curve" smooth="yes"/>
      <point x="-213" y="734"/>
      <point x="-178" y="712"/>
      <point x="-178" y="656" type="curve" smooth="yes"/>
      <point x="-178" y="648"/>
      <point x="-179" y="639"/>
      <point x="-180" y="630" type="curve"/>
    </contour>
    <contour>
      <point x="-269" y="650" type="move" name="_top"/>
    </contour>
  </outline>
</glyph>
<glyph name="c_h" format="1">
  <advance width="1029"/>
  <outline>
    <contour>
      <point x="317" y="56" type="curve" smooth="yes"/>
      <point x="215" y="56"/>
      <point x="164" y="85"/>
      <point x="164" y="194" type="curve" smooth="yes"/>
      <point x="164" y="211"/>
      <point x="167" y="235"/>
      <point x="172" y="265" type="curve" smooth="yes"/>
      <point x="198" y="426"/>
      <point x="260" y="477"/>
      <point x="356" y="477" type="curve" smooth="yes"/>
      <point x="508" y="477" type="line"/>
      <point x="517" y="524" type="line"/>
      <point x="463" y="532"/>
      <point x="394" y="540"/>
      <point x="342" y="540" type="curve" smooth="yes"/>
      <point x="214" y="540"/>
      <point x="124" y="468"/>
      <point x="95" y="282" type="curve" smooth="yes"/>
      <point x="89" y="245"/>
      <point x="85" y="213"/>
      <point x="85" y="188" type="curve" smooth="yes"/>
      <point x="85" y="34"/>
      <point x="166" y="-6"/>
      <point x="313" y="-6" type="curve" smooth="yes"/>
      <point x="493" y="-6"/>
      <point x="608" y="47"/>
      <point x="634" y="207" type="curve" smooth="yes"/>
      <point x="667" y="414" type="line"/>
      <point x="728" y="450"/>
      <point x="776" y="470"/>
      <point x="847" y="470" type="curve" smooth="yes"/>
      <point x="905" y="470"/>
      <point x="940" y="447"/>
      <point x="940" y="384" type="curve" smooth="yes"/>
      <point x="940" y="373"/>
      <point x="940" y="361"/>
      <point x="937" y="348" type="curve" smooth="yes"/>
      <point x="882" y="0" type="line"/>
      <point x="962" y="0" type="line"/>
      <point x="1019" y="360" type="line" smooth="yes"/>
      <point x="1022" y="379"/>
      <point x="1023" y="395"/>
      <point x="1023" y="411" type="curve" smooth="yes"/>
      <point x="1023" y="498"/>
      <point x="976" y="542"/>
      <point x="888" y="542" type="curve" smooth="yes"/>
      <point x="805" y="542"/>
      <point x="731" y="512"/>
      <point x="676" y="475" type="curve"/>
      <point x="722" y="763" type="line"/>
      <point x="643" y="763" type="line"/>
      <point x="556" y="215" type="line" smooth="yes"/>
      <point x="536" y="91"/>
      <point x="466" y="56"/>
    </contour>
  </outline>
</glyph>
<glyph name="c_k" format="1">
  <advance width="980"/>
  <outline>
    <contour>
      <point x="322" y="56" type="curve" smooth="yes"/>
      <point x="215" y="56"/>
      <point x="164" y="85"/>
      <point x="164" y="194" type="curve" smooth="yes"/>
      <point x="164" y="211"/>
      <point x="167" y="235"/>
      <point x="172" y="265" type="curve" smooth="yes"/>
      <point x="198" y="426"/>
      <point x="260" y="477"/>
      <point x="356" y="477" type="curve" smooth="yes"/>
      <point x="508" y="477" type="line"/>
      <point x="517" y="524" type="line"/>
      <point x="463" y="532"/>
      <point x="394" y="540"/>
      <point x="342" y="540" type="curve" smooth="yes"/>
      <point x="214" y="540"/>
      <point x="124" y="468"/>
      <point x="95" y="282" type="curve" smooth="yes"/>
      <point x="89" y="245"/>
      <point x="85" y="213"/>
      <point x="85" y="188" type="curve" smooth="yes"/>
      <point x="85" y="34"/>
      <point x="166" y="-6"/>
      <point x="319" y="-6" type="curve" smooth="yes"/>
      <point x="486" y="-6"/>
      <point x="609" y="48"/>
      <point x="629" y="172" type="curve" smooth="yes"/>
      <point x="642" y="258" type="line"/>
      <point x="666" y="258"/>
      <point x="705" y="262"/>
      <point x="734" y="270" type="curve"/>
      <point x="876" y="0" type="line"/>
      <point x="959" y="0" type="line"/>
      <point x="803" y="294" type="line"/>
      <point x="873" y="325"/>
      <point x="946" y="390"/>
      <point x="987" y="534" type="curve"/>
      <point x="908" y="534" type="line"/>
      <point x="864" y="384"/>
      <point x="772" y="326"/>
      <point x="652" y="319" type="curve"/>
      <point x="722" y="763" type="line"/>
      <point x="643" y="763" type="line"/>
      <point x="552" y="189" type="line" smooth="yes"/>
      <point x="537" y="96"/>
      <point x="455" y="56"/>
    </contour>
  </outline>
</glyph>
<glyph name="circumflexcomb_gravecomb" format="1">
  <outline>
    <contour>
      <point x="-432" y="631" type="line"/>
      <point x="-383" y="631" type="line"/>
      <point x="-274" y="692" type="line"/>
      <point x="-192" y="631" type="line"/>
      <point x="-144" y="631" type="line"/>
      <point x="-239" y="729" type="line"/>
      <point x="-295" y="729" type="line"/>
    </contour>
    <contour>
      <point x="-396" y="708" type="line"/>
      <point x="-352" y="708" type="line"/>
      <point x="-419" y="837" type="line"/>
      <point x="-484" y="837" type="line"/>
    </contour>
    <contour>
      <point x="-274" y="650" type="move" name="_top"/>
    </contour>
  </outline>
</glyph>
<glyph name="commaturnedabovecomb" format="1">
  <note>
    GF Latin Plus glyph
  </note>
  <outline>
    <contour>
      <point x="-103" y="724" type="line"/>
      <point x="-97" y="757" type="line"/>
      <point x="-135" y="757" type="line" smooth="yes"/>
      <point x="-223" y="757"/>
      <point x="-251" y="718"/>
      <point x="-267" y="617" type="curve"/>
      <point x="-217" y="617" type="line"/>
      <point x="-205" y="703"/>
      <point x="-180" y="712"/>
      <point x="-133" y="719" type="curve" smooth="yes"/>
    </contour>
    <contour>
      <point x="-208" y="650" type="move" name="_top"/>
    </contour>
  </outline>
</glyph>
<glyph name="degree.smcp" format="1">
  <advance width="287"/>
  <note>
    GF Latin Plus glyph
  </note>
  <outline>
    <contour>
      <point x="231" y="546" type="curve" smooth="yes"/>
      <point x="269" y="546"/>
      <point x="292" y="524"/>
      <point x="292" y="491" type="curve" smooth="yes"/>
      <point x="293" y="443"/>
      <point x="258" y="409"/>
      <point x="209" y="409" type="curve" smooth="yes"/>
      <point x="171" y="409"/>
      <point x="146" y="431"/>
      <point x="146" y="465" type="curve" smooth="yes"/>
      <point x="146" y="511"/>
      <point x="181" y="546"/>
    </contour>
    <contour>
      <point x="110" y="462" type="curve" smooth="yes"/>
      <point x="110" y="410"/>
      <point x="148" y="375"/>
      <point x="204" y="375" type="curve" smooth="yes"/>
      <point x="285" y="375"/>
      <point x="329" y="426"/>
      <point x="328" y="494" type="curve" smooth="yes"/>
      <point x="328" y="545"/>
      <point x="292" y="581"/>
      <point x="236" y="581" type="curve" smooth="yes"/>
      <point x="156" y="581"/>
      <point x="109" y="527"/>
    </contour>
  </outline>
</glyph>
<glyph name="dieresiscomb" format="1">
  <note>
    GF Latin Plus glyph
  </note>
  <outline>
    <contour>
      <point x="-409" y="666" type="curve" smooth="yes"/>
      <point x="-409" y="658"/>
      <point x="-404" y="653"/>
      <point x="-396" y="653" type="curve" smooth="yes"/>
      <point x="-359" y="653" type="line" smooth="yes"/>
      <point x="-350" y="653"/>
      <point x="-343" y="659"/>
      <point x="-341" y="669" type="curve" smooth="yes"/>
      <point x="-329" y="748"/>
      <point x="-328" y="749"/>
      <point x="-328" y="750" type="curve" smooth="yes"/>
      <point x="-328" y="758"/>
      <point x="-332" y="763"/>
      <point x="-341" y="763" type="curve" smooth="yes"/>
      <point x="-378" y="763" type="line" smooth="yes"/>
      <point x="-388" y="763"/>
      <point x="-395" y="757"/>
      <point x="-396" y="747" type="curve" smooth="yes"/>
      <point x="-409" y="668"/>
      <point x="-409" y="667"/>
    </contour>
    <contour>
      <point x="-205" y="666" type="curve" smooth="yes"/>
      <point x="-205" y="658"/>
      <point x="-200" y="653"/>
      <point x="-192" y="653" type="curve" smooth="yes"/>
      <point x="-155" y="653" type="line" smooth="yes"/>
      <point x="-146" y="653"/>
      <point x="-138" y="659"/>
      <point x="-137" y="669" type="curve" smooth="yes"/>
      <point x="-124" y="748"/>
      <point x="-124" y="749"/>
      <point x="-124" y="750" type="curve" smooth="yes"/>
      <point x="-124" y="758"/>
      <point x="-128" y="763"/>
      <point x="-137" y="763" type="curve" smooth="yes"/>
      <point x="-173" y="763" type="line" smooth="yes"/>
      <point x="-184" y="763"/>
      <point x="-191" y="757"/>
      <point x="-192" y="747" type="curve" smooth="yes"/>
      <point x="-205" y="668"/>
      <point x="-205" y="667"/>
    </contour>
    <contour>
      <point x="-269" y="650" type="move" name="_top"/>
    </contour>
  </outline>
</glyph>
<glyph name="dong.smcp" format="1">
  <advance width="515"/>
  <note>
    GF Latin Plus glyph
  </note>
  <outline>
    <contour>
      <point x="66" y="-28" type="line"/>
      <point x="452" y="-28" type="line"/>
      <point x="462" y="32" type="line"/>
      <point x="75" y="32" type="line"/>
    </contour>
    <contour>
      <point x="327" y="506" type="line"/>
      <point x="565" y="506" type="line"/>
      <point x="569" y="537" type="line"/>
      <point x="332" y="537" type="line"/>
    </contour>
    <contour>
      <point x="307" y="387" type="curve" smooth="yes"/>
      <point x="351" y="387"/>
      <point x="378" y="379"/>
      <point x="412" y="368" type="curve"/>
      <point x="385" y="189" type="line"/>
      <point x="353" y="175"/>
      <point x="313" y="157"/>
      <point x="265" y="157" type="curve" smooth="yes"/>
      <point x="206" y="157"/>
      <point x="180" y="182"/>
      <point x="180" y="234" type="curve" smooth="yes"/>
      <point x="180" y="310"/>
      <point x="220" y="387"/>
    </contour>
    <contour>
      <point x="102" y="215" type="curve" smooth="yes"/>
      <point x="103" y="135"/>
      <point x="147" y="99"/>
      <point x="230" y="99" type="curve" smooth="yes"/>
      <point x="283" y="99"/>
      <point x="349" y="124"/>
      <point x="378" y="144" type="curve"/>
      <point x="385" y="104" type="line"/>
      <point x="447" y="104" type="line"/>
      <point x="525" y="595" type="line"/>
      <point x="449" y="595" type="line"/>
      <point x="421" y="419" type="line"/>
      <point x="389" y="431"/>
      <point x="343" y="442"/>
      <point x="297" y="442" type="curve" smooth="yes"/>
      <point x="156" y="442"/>
      <point x="101" y="319"/>
    </contour>
  </outline>
</glyph>
<glyph name="dotaccentcomb.case" format="1">
  <note>
    GF Latin Plus glyph
  </note>
  <outline>
    <component base="dotaccentcomb" xOffset="25" yOffset="200"/>
    <contour>
      <point x="-239" y="850" type="move" name="_top"/>
    </contour>
  </outline>
</glyph>
<glyph name="eight.oldstyle" format="1">
  <advance width="609"/>
  <outline>
    <contour>
      <point x="241" y="501" type="curve" smooth="yes"/>
      <point x="252" y="570" type="line" smooth="yes"/>
      <point x="263" y="643"/>
      <point x="297" y="673"/>
      <point x="367" y="673" type="curve" smooth="yes"/>
      <point x="468" y="673" type="line" smooth="yes"/>
      <point x="517" y="673"/>
      <point x="544" y="655"/>
      <point x="544" y="604" type="curve" smooth="yes"/>
      <point x="544" y="593"/>
      <point x="544" y="583"/>
      <point x="541" y="570" type="curve" smooth="yes"/>
      <point x="530" y="501" type="line" smooth="yes"/>
      <point x="524" y="458"/>
      <point x="491" y="409"/>
      <point x="421" y="409" type="curve" smooth="yes"/>
      <point x="325" y="409" type="line" smooth="yes"/>
      <point x="265" y="409"/>
      <point x="239" y="439"/>
      <point x="239" y="481" type="curve" smooth="yes"/>
      <point x="239" y="487"/>
      <point x="239" y="494"/>
    </contour>
    <contour>
      <point x="173" y="155" type="curve" smooth="yes"/>
      <point x="188" y="248" type="line" smooth="yes"/>
      <point x="199" y="317"/>
      <point x="272" y="341"/>
      <point x="314" y="341" type="curve" smooth="yes"/>
      <point x="410" y="341" type="line" smooth="yes"/>
      <point x="477" y="341"/>
      <point x="505" y="321"/>
      <point x="505" y="273" type="curve" smooth="yes"/>
      <point x="505" y="266"/>
      <point x="504" y="257"/>
      <point x="503" y="248" type="curve" smooth="yes"/>
      <point x="488" y="155" type="line" smooth="yes"/>
      <point x="479" y="96"/>
      <point x="442" y="66"/>
      <point x="371" y="66" type="curve" smooth="yes"/>
      <point x="271" y="66" type="line" smooth="yes"/>
      <point x="213" y="66"/>
      <point x="172" y="86"/>
      <point x="172" y="137" type="curve" smooth="yes"/>
      <point x="172" y="142"/>
      <point x="172" y="148"/>
    </contour>
    <contour>
      <point x="92" y="144" type="line" smooth="yes"/>
      <point x="91" y="133"/>
      <point x="90" y="123"/>
      <point x="90" y="114" type="curve" smooth="yes"/>
      <point x="90" y="30"/>
      <point x="154" y="-2"/>
      <point x="248" y="-2" type="curve" smooth="yes"/>
      <point x="377" y="-2" type="line" smooth="yes"/>
      <point x="476" y="-2"/>
      <point x="549" y="38"/>
      <point x="566" y="144" type="curve" smooth="yes"/>
      <point x="584" y="256" type="line" smooth="yes"/>
      <point x="585" y="266"/>
      <point x="586" y="275"/>
      <point x="586" y="285" type="curve" smooth="yes"/>
      <point x="586" y="332"/>
      <point x="565" y="373"/>
      <point x="515" y="383" type="curve"/>
      <point x="568" y="397"/>
      <point x="601" y="457"/>
      <point x="608" y="503" type="curve" smooth="yes"/>
      <point x="621" y="587" type="line" smooth="yes"/>
      <point x="624" y="602"/>
      <point x="625" y="616"/>
      <point x="625" y="628" type="curve" smooth="yes"/>
      <point x="625" y="709"/>
      <point x="574" y="741"/>
      <point x="494" y="741" type="curve" smooth="yes"/>
      <point x="363" y="741" type="line" smooth="yes"/>
      <point x="272" y="741"/>
      <point x="195" y="698"/>
      <point x="177" y="587" type="curve" smooth="yes"/>
      <point x="164" y="503" type="line" smooth="yes"/>
      <point x="162" y="491"/>
      <point x="160" y="480"/>
      <point x="160" y="469" type="curve" smooth="yes"/>
      <point x="160" y="429"/>
      <point x="177" y="394"/>
      <point x="222" y="373" type="curve"/>
      <point x="179" y="363"/>
      <point x="121" y="321"/>
      <point x="109" y="250" type="curve" smooth="yes"/>
    </contour>
  </outline>
</glyph>
<glyph name="eight.smcp" format="1">
  <advance width="540"/>
  <note>
    GF Latin Plus glyph
  </note>
  <outline>
    <contour>
      <point x="228" y="431" type="curve" smooth="yes"/>
      <point x="238" y="480"/>
      <point x="261" y="502"/>
      <point x="312" y="502" type="curve" smooth="yes"/>
      <point x="394" y="502" type="line" smooth="yes"/>
      <point x="431" y="502"/>
      <point x="451" y="489"/>
      <point x="451" y="454" type="curve" smooth="yes"/>
      <point x="451" y="446"/>
      <point x="449" y="434"/>
      <point x="440" y="377" type="curve" smooth="yes"/>
      <point x="436" y="350"/>
      <point x="411" y="317"/>
      <point x="361" y="317" type="curve" smooth="yes"/>
      <point x="282" y="317" type="line" smooth="yes"/>
      <point x="238" y="317"/>
      <point x="219" y="339"/>
      <point x="219" y="367" type="curve" smooth="yes"/>
      <point x="219" y="375"/>
      <point x="222" y="400"/>
    </contour>
    <contour>
      <point x="180" y="189" type="curve" smooth="yes"/>
      <point x="189" y="240"/>
      <point x="243" y="255"/>
      <point x="272" y="255" type="curve" smooth="yes"/>
      <point x="352" y="255" type="line" smooth="yes"/>
      <point x="401" y="255"/>
      <point x="422" y="242"/>
      <point x="422" y="207" type="curve" smooth="yes"/>
      <point x="422" y="200"/>
      <point x="421" y="191"/>
      <point x="410" y="122" type="curve" smooth="yes"/>
      <point x="403" y="80"/>
      <point x="376" y="59"/>
      <point x="325" y="59" type="curve" smooth="yes"/>
      <point x="242" y="59" type="line" smooth="yes"/>
      <point x="197" y="59"/>
      <point x="168" y="73"/>
      <point x="168" y="106" type="curve" smooth="yes"/>
      <point x="168" y="116"/>
      <point x="173" y="155"/>
    </contour>
    <contour>
      <point x="93" y="126" type="line" smooth="yes"/>
      <point x="90" y="104"/>
      <point x="89" y="93"/>
      <point x="89" y="83" type="curve" smooth="yes"/>
      <point x="89" y="35"/>
      <point x="123" y="-2"/>
      <point x="218" y="-2" type="curve" smooth="yes"/>
      <point x="333" y="-2" type="line" smooth="yes"/>
      <point x="411" y="-2"/>
      <point x="471" y="27"/>
      <point x="484" y="111" type="curve" smooth="yes"/>
      <point x="495" y="177" type="line" smooth="yes"/>
      <point x="498" y="200"/>
      <point x="500" y="210"/>
      <point x="499" y="223" type="curve" smooth="yes"/>
      <point x="499" y="254"/>
      <point x="482" y="283"/>
      <point x="442" y="291" type="curve"/>
      <point x="485" y="301"/>
      <point x="510" y="350"/>
      <point x="516" y="383" type="curve" smooth="yes"/>
      <point x="524" y="438" type="line" smooth="yes"/>
      <point x="527" y="458"/>
      <point x="528" y="470"/>
      <point x="528" y="480" type="curve" smooth="yes"/>
      <point x="528" y="540"/>
      <point x="491" y="564"/>
      <point x="423" y="564" type="curve" smooth="yes"/>
      <point x="307" y="564" type="line" smooth="yes"/>
      <point x="233" y="564"/>
      <point x="170" y="536"/>
      <point x="156" y="448" type="curve" smooth="yes"/>
      <point x="146" y="383" type="line" smooth="yes"/>
      <point x="144" y="373"/>
      <point x="144" y="364"/>
      <point x="144" y="355" type="curve" smooth="yes"/>
      <point x="144" y="326"/>
      <point x="158" y="301"/>
      <point x="192" y="285" type="curve"/>
      <point x="156" y="278"/>
      <point x="111" y="244"/>
      <point x="103" y="191" type="curve" smooth="yes"/>
    </contour>
  </outline>
</glyph>
<glyph name="endash.smcp" format="1">
  <advance width="444"/>
  <note>
    GF Latin Plus glyph
  </note>
  <outline>
    <contour>
      <point x="62" y="190" type="line"/>
      <point x="443" y="190" type="line"/>
      <point x="452" y="250" type="line"/>
      <point x="71" y="250" type="line"/>
    </contour>
  </outline>
</glyph>
<glyph name="euro.smcp" format="1">
  <advance width="515"/>
  <note>
    GF Latin Plus glyph
  </note>
  <outline>
    <contour>
      <point x="82" y="314" type="line"/>
      <point x="143" y="311" type="line"/>
      <point x="202" y="311" type="line"/>
      <point x="434" y="314" type="line"/>
      <point x="439" y="348" type="line"/>
      <point x="209" y="352" type="line"/>
      <point x="153" y="352" type="line"/>
      <point x="88" y="347" type="line"/>
    </contour>
    <contour>
      <point x="64" y="198" type="line"/>
      <point x="128" y="193" type="line"/>
      <point x="183" y="193" type="line"/>
      <point x="415" y="198" type="line"/>
      <point x="420" y="232" type="line"/>
      <point x="190" y="236" type="line"/>
      <point x="131" y="236" type="line"/>
      <point x="69" y="233" type="line"/>
    </contour>
    <component base="C.smcp" xOffset="24"/>
  </outline>
</glyph>
<glyph name="five.oldstyle" format="1">
  <advance width="596"/>
  <outline>
    <contour>
      <point x="51" y="-196" type="line"/>
      <point x="116" y="-203"/>
      <point x="202" y="-207"/>
      <point x="285" y="-207" type="curve" smooth="yes"/>
      <point x="421" y="-207"/>
      <point x="522" y="-149"/>
      <point x="541" y="-29" type="curve" smooth="yes"/>
      <point x="559" y="80" type="line" smooth="yes"/>
      <point x="560" y="90"/>
      <point x="561" y="101"/>
      <point x="561" y="111" type="curve" smooth="yes"/>
      <point x="561" y="190"/>
      <point x="509" y="245"/>
      <point x="407" y="245" type="curve" smooth="yes"/>
      <point x="339" y="245" type="line" smooth="yes"/>
      <point x="276" y="245"/>
      <point x="232" y="219"/>
      <point x="211" y="192" type="curve"/>
      <point x="267" y="462" type="line"/>
      <point x="595" y="462" type="line"/>
      <point x="606" y="534" type="line"/>
      <point x="209" y="534" type="line"/>
      <point x="118" y="93" type="line"/>
      <point x="193" y="93" type="line"/>
      <point x="213" y="151"/>
      <point x="252" y="177"/>
      <point x="313" y="177" type="curve" smooth="yes"/>
      <point x="372" y="177" type="line" smooth="yes"/>
      <point x="444" y="177"/>
      <point x="480" y="144"/>
      <point x="480" y="90" type="curve" smooth="yes"/>
      <point x="480" y="83"/>
      <point x="479" y="75"/>
      <point x="477" y="66" type="curve" smooth="yes"/>
      <point x="465" y="-14" type="line" smooth="yes"/>
      <point x="453" y="-89"/>
      <point x="386" y="-135"/>
      <point x="297" y="-135" type="curve" smooth="yes"/>
      <point x="61" y="-135" type="line"/>
    </contour>
  </outline>
</glyph>
<glyph name="five.tnum" format="1">
  <advance width="609"/>
  <outline>
    <contour>
      <point x="90" y="6" type="line"/>
      <point x="159" y="-1"/>
      <point x="252" y="-5"/>
      <point x="343" y="-5" type="curve" smooth="yes"/>
      <point x="479" y="-5"/>
      <point x="581" y="53"/>
      <point x="600" y="172" type="curve" smooth="yes"/>
      <point x="618" y="282" type="line" smooth="yes"/>
      <point x="619" y="292"/>
      <point x="620" y="303"/>
      <point x="620" y="313" type="curve" smooth="yes"/>
      <point x="620" y="392"/>
      <point x="567" y="447"/>
      <point x="465" y="447" type="curve" smooth="yes"/>
      <point x="378" y="447" type="line" smooth="yes"/>
      <point x="315" y="447"/>
      <point x="270" y="421"/>
      <point x="250" y="394" type="curve"/>
      <point x="305" y="664" type="line"/>
      <point x="653" y="664" type="line"/>
      <point x="665" y="736" type="line"/>
      <point x="248" y="736" type="line"/>
      <point x="157" y="295" type="line"/>
      <point x="232" y="295" type="line"/>
      <point x="251" y="353"/>
      <point x="291" y="379"/>
      <point x="352" y="379" type="curve" smooth="yes"/>
      <point x="430" y="379" type="line" smooth="yes"/>
      <point x="503" y="379"/>
      <point x="538" y="346"/>
      <point x="538" y="292" type="curve" smooth="yes"/>
      <point x="538" y="285"/>
      <point x="537" y="277"/>
      <point x="536" y="268" type="curve" smooth="yes"/>
      <point x="523" y="188" type="line" smooth="yes"/>
      <point x="512" y="113"/>
      <point x="445" y="67"/>
      <point x="356" y="67" type="curve" smooth="yes"/>
      <point x="100" y="67" type="line"/>
    </contour>
  </outline>
</glyph>
<glyph name="five.tosf" format="1">
  <advance width="609"/>
  <outline>
    <contour>
      <point x="58" y="-196" type="line"/>
      <point x="122" y="-203"/>
      <point x="208" y="-207"/>
      <point x="292" y="-207" type="curve" smooth="yes"/>
      <point x="428" y="-207"/>
      <point x="529" y="-149"/>
      <point x="548" y="-29" type="curve" smooth="yes"/>
      <point x="565" y="80" type="line" smooth="yes"/>
      <point x="567" y="90"/>
      <point x="568" y="101"/>
      <point x="568" y="111" type="curve" smooth="yes"/>
      <point x="568" y="190"/>
      <point x="516" y="245"/>
      <point x="414" y="245" type="curve" smooth="yes"/>
      <point x="346" y="245" type="line" smooth="yes"/>
      <point x="283" y="245"/>
      <point x="238" y="219"/>
      <point x="218" y="192" type="curve"/>
      <point x="274" y="462" type="line"/>
      <point x="602" y="462" type="line"/>
      <point x="613" y="534" type="line"/>
      <point x="216" y="534" type="line"/>
      <point x="125" y="93" type="line"/>
      <point x="200" y="93" type="line"/>
      <point x="219" y="151"/>
      <point x="259" y="177"/>
      <point x="320" y="177" type="curve" smooth="yes"/>
      <point x="378" y="177" type="line" smooth="yes"/>
      <point x="451" y="177"/>
      <point x="486" y="144"/>
      <point x="486" y="90" type="curve" smooth="yes"/>
      <point x="486" y="83"/>
      <point x="486" y="75"/>
      <point x="484" y="66" type="curve" smooth="yes"/>
      <point x="472" y="-14" type="line" smooth="yes"/>
      <point x="459" y="-89"/>
      <point x="393" y="-135"/>
      <point x="304" y="-135" type="curve" smooth="yes"/>
      <point x="68" y="-135" type="line"/>
    </contour>
  </outline>
</glyph>
<glyph name="florin.smcp" format="1">
  <advance width="515"/>
  <note>
    GF Latin Plus glyph
  </note>
  <outline>
    <contour>
      <point x="11" y="-145" type="line"/>
      <point x="25" y="-150"/>
      <point x="53" y="-156"/>
      <point x="82" y="-156" type="curve" smooth="yes"/>
      <point x="171" y="-156"/>
      <point x="230" y="-102"/>
      <point x="276" y="45" type="curve" smooth="yes"/>
      <point x="353" y="301" type="line"/>
      <point x="450" y="301" type="line"/>
      <point x="465" y="352" type="line"/>
      <point x="366" y="352" type="line"/>
      <point x="388" y="418" type="line" smooth="yes"/>
      <point x="418" y="516"/>
      <point x="444" y="552"/>
      <point x="507" y="552" type="curve" smooth="yes"/>
      <point x="556" y="552" type="line"/>
      <point x="570" y="597" type="line"/>
      <point x="559" y="601"/>
      <point x="537" y="608"/>
      <point x="493" y="608" type="curve" smooth="yes"/>
      <point x="396" y="608"/>
      <point x="353" y="552"/>
      <point x="313" y="426" type="curve" smooth="yes"/>
      <point x="291" y="353" type="line"/>
      <point x="216" y="353" type="line"/>
      <point x="202" y="301" type="line"/>
      <point x="277" y="301" type="line"/>
      <point x="203" y="60" type="line" smooth="yes"/>
      <point x="166" y="-63"/>
      <point x="132" y="-100"/>
      <point x="74" y="-100" type="curve" smooth="yes"/>
      <point x="26" y="-100" type="line"/>
    </contour>
  </outline>
</glyph>
<glyph name="four.tosf" format="1">
  <advance width="609"/>
  <outline>
    <contour>
      <point x="70" y="65" type="line"/>
      <point x="82" y="20" type="line"/>
      <point x="432" y="20" type="line"/>
      <point x="400" y="-183" type="line"/>
      <point x="480" y="-183" type="line"/>
      <point x="512" y="20" type="line"/>
      <point x="594" y="37" type="line"/>
      <point x="603" y="89" type="line"/>
      <point x="523" y="89" type="line"/>
      <point x="561" y="336" type="line"/>
      <point x="501" y="336" type="line"/>
      <point x="468" y="248" type="line"/>
      <point x="444" y="89" type="line"/>
      <point x="167" y="89" type="line"/>
      <point x="452" y="536" type="line"/>
      <point x="371" y="536" type="line"/>
    </contour>
  </outline>
</glyph>
<glyph name="h.superior" format="1">
  <advance width="432"/>
  <note>
    GF Latin Plus glyph
  </note>
  <outline>
    <contour>
      <point x="93" y="280" type="line"/>
      <point x="160" y="280" type="line"/>
      <point x="208" y="576" type="line"/>
      <point x="250" y="601"/>
      <point x="285" y="615"/>
      <point x="336" y="615" type="curve" smooth="yes"/>
      <point x="376" y="615"/>
      <point x="402" y="600"/>
      <point x="402" y="557" type="curve" smooth="yes"/>
      <point x="402" y="549"/>
      <point x="401" y="537"/>
      <point x="399" y="520" type="curve" smooth="yes"/>
      <point x="361" y="280" type="line"/>
      <point x="428" y="280" type="line"/>
      <point x="467" y="526" type="line" smooth="yes"/>
      <point x="470" y="547"/>
      <point x="472" y="568"/>
      <point x="472" y="581" type="curve" smooth="yes"/>
      <point x="472" y="646"/>
      <point x="437" y="677"/>
      <point x="371" y="677" type="curve" smooth="yes"/>
      <point x="309" y="677"/>
      <point x="255" y="656"/>
      <point x="215" y="629" type="curve"/>
      <point x="249" y="840" type="line"/>
      <point x="183" y="840" type="line"/>
    </contour>
    <contour>
      <point x="290" y="903" type="move" name="top"/>
    </contour>
    <contour>
      <point x="239" y="170" type="move" name="bottom"/>
    </contour>
  </outline>
</glyph>
<glyph name="hookabovecomb" format="1">
  <note>
    GF Latin Plus glyph
  </note>
  <outline>
    <contour>
      <point x="-312" y="737" type="line"/>
      <point x="-300" y="741"/>
      <point x="-287" y="743"/>
      <point x="-275" y="743" type="curve" smooth="yes"/>
      <point x="-246" y="743"/>
      <point x="-234" y="731"/>
      <point x="-234" y="710" type="curve" smooth="yes"/>
      <point x="-234" y="682"/>
      <point x="-248" y="655"/>
      <point x="-301" y="640" type="curve"/>
      <point x="-307" y="603" type="line"/>
      <point x="-221" y="626"/>
      <point x="-190" y="670"/>
      <point x="-190" y="716" type="curve" smooth="yes"/>
      <point x="-190" y="755"/>
      <point x="-212" y="777"/>
      <point x="-259" y="777" type="curve" smooth="yes"/>
      <point x="-276" y="777"/>
      <point x="-291" y="776"/>
      <point x="-307" y="770" type="curve"/>
    </contour>
    <contour>
      <point x="-281" y="650" type="move" name="_top"/>
    </contour>
  </outline>
</glyph>
<glyph name="horncomb" format="1">
  <note>
    GF Latin Plus glyph
  </note>
  <outline>
    <contour>
      <point x="-258" y="489" type="line"/>
      <point x="-152" y="489" type="line" smooth="yes"/>
      <point x="-86" y="489"/>
      <point x="-22" y="531"/>
      <point x="-4" y="647" type="curve"/>
      <point x="-62" y="647" type="line"/>
      <point x="-74" y="562"/>
      <point x="-111" y="534"/>
      <point x="-158" y="534" type="curve" smooth="yes"/>
      <point x="-251" y="534" type="line"/>
    </contour>
    <contour>
      <point x="-235" y="650" type="move" name="_top"/>
    </contour>
  </outline>
</glyph>
<glyph name="hyphen.smcp" format="1">
  <advance width="298"/>
  <note>
    GF Latin Plus glyph
  </note>
  <outline>
    <contour>
      <point x="60" y="191" type="line"/>
      <point x="299" y="191" type="line"/>
      <point x="308" y="250" type="line"/>
      <point x="69" y="250" type="line"/>
    </contour>
  </outline>
</glyph>
<glyph name="l.superior" format="1">
  <advance width="222"/>
  <note>
    GF Latin Plus glyph
  </note>
  <outline>
    <contour>
      <point x="115" y="414" type="line" smooth="yes"/>
      <point x="112" y="399"/>
      <point x="110" y="380"/>
      <point x="110" y="360" type="curve" smooth="yes"/>
      <point x="110" y="310"/>
      <point x="143" y="280"/>
      <point x="207" y="280" type="curve" smooth="yes"/>
      <point x="253" y="280" type="line"/>
      <point x="260" y="329" type="line"/>
      <point x="223" y="333" type="line" smooth="yes"/>
      <point x="195" y="336"/>
      <point x="179" y="347"/>
      <point x="179" y="379" type="curve" smooth="yes"/>
      <point x="179" y="397"/>
      <point x="183" y="421"/>
      <point x="185" y="435" type="curve" smooth="yes"/>
      <point x="249" y="840" type="line"/>
      <point x="183" y="840" type="line"/>
    </contour>
    <contour>
      <point x="227" y="903" type="move" name="top"/>
    </contour>
    <contour>
      <point x="251" y="756" type="move" name="altcaron"/>
    </contour>
    <contour>
      <point x="266" y="558" type="move" name="dot"/>
    </contour>
    <contour>
      <point x="161" y="170" type="move" name="bottom"/>
    </contour>
  </outline>
</glyph>
<glyph name="lira.smcp" format="1">
  <advance width="515"/>
  <note>
    GF Latin Plus glyph
  </note>
  <outline>
    <contour>
      <point x="62" y="0" type="line"/>
      <point x="453" y="0" type="line"/>
      <point x="463" y="65" type="line"/>
      <point x="233" y="65" type="line"/>
      <point x="252" y="183" type="line"/>
      <point x="419" y="185" type="line"/>
      <point x="425" y="219" type="line"/>
      <point x="258" y="222" type="line"/>
      <point x="268" y="286" type="line"/>
      <point x="436" y="288" type="line"/>
      <point x="441" y="322" type="line"/>
      <point x="274" y="326" type="line"/>
      <point x="286" y="397" type="line" smooth="yes"/>
      <point x="300" y="480"/>
      <point x="336" y="498"/>
      <point x="405" y="498" type="curve" smooth="yes"/>
      <point x="523" y="498" type="line"/>
      <point x="533" y="554" type="line"/>
      <point x="505" y="557"/>
      <point x="459" y="562"/>
      <point x="408" y="562" type="curve" smooth="yes"/>
      <point x="299" y="562"/>
      <point x="230" y="529"/>
      <point x="211" y="405" type="curve" smooth="yes"/>
      <point x="198" y="326" type="line"/>
      <point x="113" y="322" type="line"/>
      <point x="108" y="288" type="line"/>
      <point x="192" y="287" type="line"/>
      <point x="182" y="224" type="line"/>
      <point x="98" y="222" type="line"/>
      <point x="92" y="188" type="line"/>
      <point x="176" y="186" type="line"/>
      <point x="157" y="65" type="line"/>
      <point x="71" y="54" type="line"/>
    </contour>
  </outline>
</glyph>
<glyph name="macroncomb" format="1">
  <note>
    GF Latin Plus glyph
  </note>
  <outline>
    <component base="macron" xOffset="-553"/>
    <contour>
      <point x="-269" y="650" type="move" name="_top"/>
    </contour>
  </outline>
</glyph>
<glyph name="manat.smcp" format="1">
  <advance width="515"/>
  <note>
    GF Latin Plus glyph
  </note>
  <outline>
    <contour>
      <point x="248" y="61" type="line"/>
      <point x="287" y="61" type="line"/>
      <point x="372" y="598" type="line"/>
      <point x="333" y="598" type="line"/>
    </contour>
    <contour>
      <point x="43" y="0" type="curve"/>
      <point x="112" y="0" type="line"/>
      <point x="149" y="186" type="line" smooth="yes"/>
      <point x="174" y="310"/>
      <point x="221" y="460"/>
      <point x="330" y="460" type="curve" smooth="yes"/>
      <point x="409" y="460"/>
      <point x="431" y="382"/>
      <point x="431" y="293" type="curve" smooth="yes"/>
      <point x="432" y="258"/>
      <point x="429" y="221"/>
      <point x="424" y="182" type="curve" smooth="yes"/>
      <point x="403" y="0" type="line"/>
      <point x="472" y="0" type="line"/>
      <point x="486" y="104"/>
      <point x="495" y="199"/>
      <point x="495" y="279" type="curve" smooth="yes"/>
      <point x="493" y="429"/>
      <point x="455" y="524"/>
      <point x="340" y="524" type="curve" smooth="yes"/>
      <point x="165" y="524"/>
      <point x="99" y="301"/>
    </contour>
  </outline>
</glyph>
<glyph name="naira.smcp" format="1">
  <advance width="515"/>
  <note>
    GF Latin Plus glyph
  </note>
  <outline>
    <contour>
      <point x="87" y="0" type="line"/>
      <point x="149" y="0" type="line"/>
      <point x="218" y="434" type="line"/>
      <point x="375" y="0" type="line"/>
      <point x="428" y="0" type="line"/>
      <point x="518" y="565" type="line"/>
      <point x="456" y="565" type="line"/>
      <point x="387" y="132" type="line"/>
      <point x="229" y="565" type="line"/>
      <point x="177" y="565" type="line"/>
    </contour>
    <contour>
      <point x="93" y="361" type="line"/>
      <point x="172" y="361" type="line"/>
      <point x="178" y="401" type="line"/>
      <point x="100" y="401" type="line"/>
    </contour>
    <contour>
      <point x="276" y="361" type="line"/>
      <point x="535" y="361" type="line"/>
      <point x="542" y="401" type="line"/>
      <point x="261" y="401" type="line"/>
    </contour>
    <contour>
      <point x="62" y="164" type="line"/>
      <point x="353" y="164" type="line"/>
      <point x="335" y="204" type="line"/>
      <point x="69" y="204" type="line"/>
    </contour>
    <contour>
      <point x="434" y="164" type="line"/>
      <point x="505" y="164" type="line"/>
      <point x="511" y="204" type="line"/>
      <point x="441" y="204" type="line"/>
    </contour>
  </outline>
</glyph>
<glyph name="numbersign.smcp" format="1">
  <advance width="583"/>
  <note>
    GF Latin Plus glyph
  </note>
  <outline>
    <contour>
      <point x="253" y="218" type="line"/>
      <point x="294" y="337" type="line"/>
      <point x="412" y="337" type="line"/>
      <point x="372" y="218" type="line"/>
    </contour>
    <contour>
      <point x="56" y="171" type="line"/>
      <point x="186" y="171" type="line"/>
      <point x="129" y="0" type="line"/>
      <point x="179" y="0" type="line"/>
      <point x="236" y="171" type="line"/>
      <point x="354" y="171" type="line"/>
      <point x="296" y="0" type="line"/>
      <point x="346" y="0" type="line"/>
      <point x="403" y="171" type="line"/>
      <point x="548" y="171" type="line"/>
      <point x="562" y="218" type="line"/>
      <point x="422" y="218" type="line"/>
      <point x="462" y="337" type="line"/>
      <point x="602" y="337" type="line"/>
      <point x="617" y="384" type="line"/>
      <point x="477" y="384" type="line"/>
      <point x="536" y="557" type="line"/>
      <point x="486" y="557" type="line"/>
      <point x="428" y="384" type="line"/>
      <point x="310" y="384" type="line"/>
      <point x="369" y="557" type="line"/>
      <point x="319" y="557" type="line"/>
      <point x="261" y="384" type="line"/>
      <point x="125" y="384" type="line"/>
      <point x="109" y="337" type="line"/>
      <point x="244" y="337" type="line"/>
      <point x="204" y="218" type="line"/>
      <point x="71" y="218" type="line"/>
    </contour>
  </outline>
</glyph>
<glyph name="one.smcp" format="1">
  <advance width="318"/>
  <note>
    GF Latin Plus glyph
  </note>
  <outline>
    <contour>
      <point x="119" y="463" type="line"/>
      <point x="242" y="493" type="line"/>
      <point x="164" y="0" type="line"/>
      <point x="240" y="0" type="line"/>
      <point x="329" y="560" type="line"/>
      <point x="260" y="560" type="line"/>
      <point x="125" y="509" type="line"/>
    </contour>
  </outline>
</glyph>
<glyph name="ordmasculine.smcp" format="1">
  <advance width="420"/>
  <outline>
    <contour>
      <point x="322" y="653" type="curve" smooth="yes"/>
      <point x="378" y="653"/>
      <point x="404" y="632"/>
      <point x="404" y="562" type="curve" smooth="yes"/>
      <point x="404" y="467"/>
      <point x="353" y="353"/>
      <point x="251" y="353" type="curve" smooth="yes"/>
      <point x="198" y="353"/>
      <point x="176" y="376"/>
      <point x="176" y="441" type="curve" smooth="yes"/>
      <point x="176" y="541"/>
      <point x="230" y="653"/>
    </contour>
    <contour>
      <point x="113" y="437" type="curve" smooth="yes"/>
      <point x="113" y="330"/>
      <point x="163" y="301"/>
      <point x="244" y="301" type="curve" smooth="yes"/>
      <point x="387" y="301"/>
      <point x="467" y="435"/>
      <point x="467" y="568" type="curve" smooth="yes"/>
      <point x="467" y="675"/>
      <point x="414" y="706"/>
      <point x="328" y="706" type="curve" smooth="yes"/>
      <point x="196" y="706"/>
      <point x="113" y="571"/>
    </contour>
    <contour>
      <point x="56" y="196" type="line"/>
      <point x="426" y="196" type="line"/>
      <point x="433" y="238" type="line"/>
      <point x="63" y="238" type="line"/>
    </contour>
  </outline>
</glyph>
<glyph name="p.superior" format="1">
  <advance width="424"/>
  <note>
    GF Latin Plus glyph
  </note>
  <outline>
    <contour>
      <point x="171" y="351" type="curve"/>
      <point x="213" y="619" type="line"/>
      <point x="322" y="620" type="line" smooth="yes"/>
      <point x="377" y="620"/>
      <point x="401" y="590"/>
      <point x="402" y="530" type="curve" smooth="yes"/>
      <point x="402" y="512"/>
      <point x="398" y="493"/>
      <point x="397" y="478" type="curve" smooth="yes"/>
      <point x="381" y="382"/>
      <point x="348" y="334"/>
      <point x="268" y="334" type="curve" smooth="yes"/>
      <point x="230" y="334"/>
      <point x="211" y="338"/>
    </contour>
    <contour>
      <point x="66" y="106" type="line"/>
      <point x="132" y="106" type="line"/>
      <point x="163" y="297" type="line"/>
      <point x="197" y="282"/>
      <point x="231" y="276"/>
      <point x="274" y="276" type="curve" smooth="yes"/>
      <point x="382" y="276"/>
      <point x="441" y="344"/>
      <point x="460" y="465" type="curve" smooth="yes"/>
      <point x="464" y="489"/>
      <point x="468" y="516"/>
      <point x="468" y="541" type="curve" smooth="yes"/>
      <point x="467" y="632"/>
      <point x="426" y="676"/>
      <point x="339" y="676" type="curve" smooth="yes"/>
      <point x="264" y="676"/>
      <point x="206" y="671"/>
      <point x="154" y="663" type="curve"/>
    </contour>
  </outline>
</glyph>
<glyph name="parenleft.smcp" format="1">
  <advance width="311"/>
  <note>
    GF Latin Plus glyph
  </note>
  <outline>
    <contour>
      <point x="104" y="132" type="curve" smooth="yes"/>
      <point x="105" y="15"/>
      <point x="135" y="-80"/>
      <point x="187" y="-160" type="curve"/>
      <point x="257" y="-160" type="line"/>
      <point x="207" y="-66"/>
      <point x="182" y="31"/>
      <point x="180" y="139" type="curve" smooth="yes"/>
      <point x="178" y="315"/>
      <point x="262" y="516"/>
      <point x="385" y="654" type="curve"/>
      <point x="315" y="654" type="line"/>
      <point x="190" y="526"/>
      <point x="102" y="316"/>
    </contour>
  </outline>
</glyph>
<glyph name="periodcentered.loclCAT" format="1">
  <advance width="142"/>
  <note>
    GF Latin Plus glyph
  </note>
  <outline>
    <component base="periodcentered" xOffset="-75"/>
    <contour>
      <point x="37" y="350" type="move" name="_dot"/>
    </contour>
  </outline>
</glyph>
<glyph name="six.smcp" format="1">
  <advance width="523"/>
  <note>
    GF Latin Plus glyph
  </note>
  <outline>
    <contour>
      <point x="183" y="259" type="curve"/>
      <point x="320" y="259" type="line" smooth="yes"/>
      <point x="379" y="259"/>
      <point x="419" y="248"/>
      <point x="419" y="207" type="curve" smooth="yes"/>
      <point x="419" y="200"/>
      <point x="416" y="173"/>
      <point x="409" y="132" type="curve" smooth="yes"/>
      <point x="398" y="77"/>
      <point x="361" y="62"/>
      <point x="316" y="62" type="curve" smooth="yes"/>
      <point x="249" y="62" type="line" smooth="yes"/>
      <point x="204" y="62"/>
      <point x="174" y="84"/>
      <point x="174" y="164" type="curve" smooth="yes"/>
      <point x="174" y="189"/>
      <point x="177" y="222"/>
    </contour>
    <contour>
      <point x="99" y="157" type="curve" smooth="yes"/>
      <point x="100" y="32"/>
      <point x="151" y="-2"/>
      <point x="233" y="-2" type="curve" smooth="yes"/>
      <point x="321" y="-2" type="line" smooth="yes"/>
      <point x="402" y="-2"/>
      <point x="469" y="31"/>
      <point x="482" y="122" type="curve" smooth="yes"/>
      <point x="494" y="194" type="line" smooth="yes"/>
      <point x="496" y="211"/>
      <point x="497" y="221"/>
      <point x="497" y="230" type="curve" smooth="yes"/>
      <point x="497" y="294"/>
      <point x="446" y="321"/>
      <point x="350" y="321" type="curve" smooth="yes"/>
      <point x="304" y="321"/>
      <point x="238" y="318"/>
      <point x="191" y="312" type="curve"/>
      <point x="212" y="438"/>
      <point x="277" y="500"/>
      <point x="361" y="500" type="curve" smooth="yes"/>
      <point x="506" y="500" type="line"/>
      <point x="516" y="556" type="line"/>
      <point x="474" y="561"/>
      <point x="416" y="565"/>
      <point x="368" y="565" type="curve" smooth="yes"/>
      <point x="171" y="565"/>
      <point x="97" y="376"/>
    </contour>
  </outline>
</glyph>
<glyph name="t.superior" format="1">
  <advance width="291"/>
  <note>
    GF Latin Plus glyph
  </note>
  <outline>
    <contour>
      <point x="118" y="616" type="line"/>
      <point x="181" y="616" type="line"/>
      <point x="149" y="429" type="line" smooth="yes"/>
      <point x="145" y="407"/>
      <point x="142" y="386"/>
      <point x="142" y="364" type="curve" smooth="yes"/>
      <point x="142" y="309"/>
      <point x="177" y="280"/>
      <point x="246" y="280" type="curve" smooth="yes"/>
      <point x="298" y="280" type="line"/>
      <point x="306" y="330" type="line"/>
      <point x="259" y="334" type="line" smooth="yes"/>
      <point x="225" y="338"/>
      <point x="210" y="352"/>
      <point x="210" y="382" type="curve" smooth="yes"/>
      <point x="210" y="397"/>
      <point x="213" y="415"/>
      <point x="215" y="431" type="curve" smooth="yes"/>
      <point x="245" y="616" type="line"/>
      <point x="357" y="616" type="line"/>
      <point x="365" y="672" type="line"/>
      <point x="253" y="672" type="line"/>
      <point x="271" y="782" type="line"/>
      <point x="219" y="782" type="line"/>
      <point x="191" y="672" type="line"/>
      <point x="124" y="660" type="line"/>
    </contour>
    <contour>
      <point x="283" y="766" type="move" name="altcaron"/>
    </contour>
    <contour>
      <point x="209" y="170" type="move" name="bottom"/>
    </contour>
  </outline>
</glyph>
<glyph name="tbar.salt" format="1">
  <advance width="331"/>
  <outline>
    <contour>
      <point x="37" y="295" type="line"/>
      <point x="324" y="295" type="line"/>
      <point x="330" y="329" type="line"/>
      <point x="43" y="329" type="line"/>
    </contour>
    <component base="t.salt"/>
  </outline>
</glyph>
<glyph name="three.tosf" format="1">
  <advance width="609"/>
  <outline>
    <contour>
      <point x="174" y="465" type="line"/>
      <point x="360" y="465" type="line" smooth="yes"/>
      <point x="447" y="465"/>
      <point x="489" y="432"/>
      <point x="489" y="374" type="curve" smooth="yes"/>
      <point x="489" y="367"/>
      <point x="488" y="359"/>
      <point x="488" y="351" type="curve" smooth="yes"/>
      <point x="479" y="302" type="line" smooth="yes"/>
      <point x="469" y="234"/>
      <point x="416" y="209"/>
      <point x="344" y="206" type="curve" smooth="yes"/>
      <point x="180" y="198" type="line"/>
      <point x="171" y="140" type="line"/>
      <point x="336" y="133" type="line" smooth="yes"/>
      <point x="390" y="130"/>
      <point x="448" y="109"/>
      <point x="448" y="46" type="curve" smooth="yes"/>
      <point x="448" y="40"/>
      <point x="447" y="33"/>
      <point x="446" y="25" type="curve" smooth="yes"/>
      <point x="439" y="-21" type="line" smooth="yes"/>
      <point x="424" y="-113"/>
      <point x="357" y="-134"/>
      <point x="272" y="-134" type="curve" smooth="yes"/>
      <point x="54" y="-134" type="line"/>
      <point x="44" y="-195" type="line"/>
      <point x="104" y="-203"/>
      <point x="189" y="-208"/>
      <point x="286" y="-208" type="curve" smooth="yes"/>
      <point x="414" y="-208"/>
      <point x="499" y="-147"/>
      <point x="517" y="-34" type="curve" smooth="yes"/>
      <point x="525" y="17" type="line" smooth="yes"/>
      <point x="527" y="28"/>
      <point x="528" y="38"/>
      <point x="528" y="48" type="curve" smooth="yes"/>
      <point x="528" y="126"/>
      <point x="468" y="160"/>
      <point x="431" y="169" type="curve"/>
      <point x="472" y="178"/>
      <point x="544" y="212"/>
      <point x="558" y="304" type="curve" smooth="yes"/>
      <point x="568" y="367" type="line" smooth="yes"/>
      <point x="571" y="379"/>
      <point x="572" y="391"/>
      <point x="572" y="402" type="curve" smooth="yes"/>
      <point x="572" y="491"/>
      <point x="512" y="540"/>
      <point x="397" y="540" type="curve" smooth="yes"/>
      <point x="309" y="540"/>
      <point x="237" y="533"/>
      <point x="183" y="526" type="curve"/>
    </contour>
  </outline>
</glyph>
<glyph name="two.oldstyle" format="1">
  <advance width="576"/>
  <outline>
    <contour>
      <point x="175" y="468" type="line"/>
      <point x="365" y="468" type="line" smooth="yes"/>
      <point x="442" y="468"/>
      <point x="475" y="445"/>
      <point x="475" y="399" type="curve" smooth="yes"/>
      <point x="475" y="360"/>
      <point x="438" y="294"/>
      <point x="287" y="189" type="curve" smooth="yes"/>
      <point x="94" y="59" type="line"/>
      <point x="84" y="0" type="line"/>
      <point x="515" y="0" type="line"/>
      <point x="527" y="71" type="line"/>
      <point x="216" y="71" type="line"/>
      <point x="359" y="170" type="line" smooth="yes"/>
      <point x="512" y="274"/>
      <point x="557" y="366"/>
      <point x="557" y="426" type="curve" smooth="yes"/>
      <point x="557" y="499"/>
      <point x="507" y="540"/>
      <point x="388" y="540" type="curve" smooth="yes"/>
      <point x="309" y="540"/>
      <point x="232" y="534"/>
      <point x="185" y="529" type="curve"/>
    </contour>
  </outline>
</glyph>
<glyph name="two.smcp" format="1">
  <advance width="501"/>
  <note>
    GF Latin Plus glyph
  </note>
  <outline>
    <contour>
      <point x="152" y="497" type="line"/>
      <point x="313" y="497" type="line" smooth="yes"/>
      <point x="394" y="497"/>
      <point x="418" y="470"/>
      <point x="418" y="430" type="curve" smooth="yes"/>
      <point x="419" y="383"/>
      <point x="384" y="323"/>
      <point x="300" y="254" type="curve" smooth="yes"/>
      <point x="63" y="58" type="line"/>
      <point x="54" y="0" type="line"/>
      <point x="452" y="0" type="line"/>
      <point x="463" y="65" type="line"/>
      <point x="171" y="65" type="line"/>
      <point x="357" y="221" type="line" smooth="yes"/>
      <point x="455" y="304"/>
      <point x="495" y="379"/>
      <point x="494" y="448" type="curve" smooth="yes"/>
      <point x="493" y="515"/>
      <point x="452" y="565"/>
      <point x="335" y="565" type="curve" smooth="yes"/>
      <point x="270" y="565"/>
      <point x="209" y="557"/>
      <point x="161" y="552" type="curve"/>
    </contour>
  </outline>
</glyph>
<glyph name="two.tnum" format="1">
  <advance width="609"/>
  <outline>
    <contour>
      <point x="198" y="667" type="line"/>
      <point x="394" y="667" type="line" smooth="yes"/>
      <point x="503" y="667"/>
      <point x="537" y="629"/>
      <point x="537" y="573" type="curve" smooth="yes"/>
      <point x="537" y="512"/>
      <point x="497" y="419"/>
      <point x="385" y="326" type="curve" smooth="yes"/>
      <point x="76" y="65" type="line"/>
      <point x="66" y="0" type="line"/>
      <point x="554" y="0" type="line"/>
      <point x="566" y="73" type="line"/>
      <point x="185" y="73" type="line"/>
      <point x="438" y="285" type="line" smooth="yes"/>
      <point x="572" y="399"/>
      <point x="619" y="508"/>
      <point x="619" y="598" type="curve" smooth="yes"/>
      <point x="619" y="685"/>
      <point x="568" y="742"/>
      <point x="424" y="742" type="curve" smooth="yes"/>
      <point x="345" y="742"/>
      <point x="268" y="733"/>
      <point x="208" y="728" type="curve"/>
    </contour>
  </outline>
</glyph>
<glyph name="two.tosf" format="1">
  <advance width="609"/>
  <outline>
    <contour>
      <point x="202" y="468" type="line"/>
      <point x="392" y="468" type="line" smooth="yes"/>
      <point x="469" y="468"/>
      <point x="502" y="445"/>
      <point x="502" y="399" type="curve" smooth="yes"/>
      <point x="502" y="360"/>
      <point x="465" y="294"/>
      <point x="314" y="189" type="curve" smooth="yes"/>
      <point x="120" y="59" type="line"/>
      <point x="111" y="0" type="line"/>
      <point x="542" y="0" type="line"/>
      <point x="553" y="71" type="line"/>
      <point x="242" y="71" type="line"/>
      <point x="386" y="170" type="line" smooth="yes"/>
      <point x="538" y="274"/>
      <point x="584" y="366"/>
      <point x="584" y="426" type="curve" smooth="yes"/>
      <point x="584" y="499"/>
      <point x="533" y="540"/>
      <point x="414" y="540" type="curve" smooth="yes"/>
      <point x="335" y="540"/>
      <point x="258" y="534"/>
      <point x="211" y="529" type="curve"/>
    </contour>
  </outline>
</glyph>
<glyph name="u.superior" format="1">
  <advance width="432"/>
  <note>
    GF Latin Plus glyph
  </note>
  <outline>
    <contour>
      <point x="114" y="410" type="line" smooth="yes"/>
      <point x="111" y="397"/>
      <point x="110" y="385"/>
      <point x="110" y="367" type="curve" smooth="yes"/>
      <point x="110" y="310"/>
      <point x="143" y="276"/>
      <point x="212" y="276" type="curve" smooth="yes"/>
      <point x="279" y="276"/>
      <point x="321" y="294"/>
      <point x="367" y="322" type="curve"/>
      <point x="369" y="280" type="line"/>
      <point x="427" y="280" type="line"/>
      <point x="489" y="672" type="line"/>
      <point x="422" y="672" type="line"/>
      <point x="375" y="376" type="line"/>
      <point x="332" y="352"/>
      <point x="297" y="337"/>
      <point x="248" y="337" type="curve" smooth="yes"/>
      <point x="199" y="337"/>
      <point x="179" y="358"/>
      <point x="179" y="394" type="curve" smooth="yes"/>
      <point x="179" y="402"/>
      <point x="180" y="411"/>
      <point x="182" y="419" type="curve" smooth="yes"/>
      <point x="221" y="672" type="line"/>
      <point x="155" y="672" type="line"/>
    </contour>
    <contour>
      <point x="335" y="756" type="move" name="top"/>
    </contour>
    <contour>
      <point x="419" y="280" type="move" name="ogonek"/>
    </contour>
    <contour>
      <point x="242" y="170" type="move" name="bottom"/>
    </contour>
  </outline>
</glyph>
<glyph name="v.superior" format="1">
  <advance width="404"/>
  <note>
    GF Latin Plus glyph
  </note>
  <outline>
    <contour>
      <point x="112" y="672" type="line"/>
      <point x="199" y="280" type="line"/>
      <point x="275" y="280" type="line"/>
      <point x="425" y="548" type="line" smooth="yes"/>
      <point x="448" y="590"/>
      <point x="464" y="634"/>
      <point x="465" y="678" type="curve"/>
      <point x="406" y="678" type="line"/>
      <point x="401" y="640"/>
      <point x="390" y="611"/>
      <point x="375" y="579" type="curve" smooth="yes"/>
      <point x="248" y="343" type="line"/>
      <point x="181" y="672" type="line"/>
    </contour>
  </outline>
</glyph>
<glyph name="zero.oldstyle" format="1">
  <advance width="609"/>
  <outline>
    <contour>
      <point x="175" y="179" type="curve" smooth="yes"/>
      <point x="202" y="355" type="line" smooth="yes"/>
      <point x="214" y="429"/>
      <point x="267" y="467"/>
      <point x="336" y="467" type="curve" smooth="yes"/>
      <point x="438" y="467" type="line" smooth="yes"/>
      <point x="502" y="467"/>
      <point x="535" y="439"/>
      <point x="535" y="383" type="curve" smooth="yes"/>
      <point x="535" y="374"/>
      <point x="534" y="365"/>
      <point x="532" y="355" type="curve" smooth="yes"/>
      <point x="505" y="179" type="line" smooth="yes"/>
      <point x="493" y="106"/>
      <point x="454" y="67"/>
      <point x="375" y="67" type="curve" smooth="yes"/>
      <point x="272" y="67" type="line" smooth="yes"/>
      <point x="211" y="67"/>
      <point x="172" y="94"/>
      <point x="172" y="153" type="curve" smooth="yes"/>
      <point x="172" y="161"/>
      <point x="173" y="169"/>
    </contour>
    <contour>
      <point x="93" y="166" type="line" smooth="yes"/>
      <point x="91" y="151"/>
      <point x="90" y="138"/>
      <point x="90" y="125" type="curve" smooth="yes"/>
      <point x="90" y="37"/>
      <point x="148" y="-6"/>
      <point x="242" y="-6" type="curve" smooth="yes"/>
      <point x="381" y="-6" type="line" smooth="yes"/>
      <point x="495" y="-6"/>
      <point x="564" y="52"/>
      <point x="582" y="166" type="curve" smooth="yes"/>
      <point x="614" y="368" type="line" smooth="yes"/>
      <point x="616" y="382"/>
      <point x="618" y="395"/>
      <point x="618" y="409" type="curve" smooth="yes"/>
      <point x="618" y="484"/>
      <point x="578" y="539"/>
      <point x="468" y="539" type="curve" smooth="yes"/>
      <point x="329" y="539" type="line" smooth="yes"/>
      <point x="218" y="539"/>
      <point x="142" y="474"/>
      <point x="125" y="368" type="curve" smooth="yes"/>
    </contour>
  </outline>
</glyph>
<glyph name="zero.smcp" format="1">
  <advance width="551"/>
  <note>
    GF Latin Plus glyph
  </note>
  <outline>
    <contour>
      <point x="170" y="150" type="curve" smooth="yes"/>
      <point x="212" y="420" type="line" smooth="yes"/>
      <point x="221" y="471"/>
      <point x="257" y="500"/>
      <point x="311" y="500" type="curve" smooth="yes"/>
      <point x="400" y="500" type="line" smooth="yes"/>
      <point x="449" y="500"/>
      <point x="472" y="479"/>
      <point x="473" y="440" type="curve" smooth="yes"/>
      <point x="473" y="434"/>
      <point x="472" y="427"/>
      <point x="471" y="415" type="curve" smooth="yes"/>
      <point x="427" y="143" type="line" smooth="yes"/>
      <point x="419" y="93"/>
      <point x="389" y="63"/>
      <point x="328" y="63" type="curve" smooth="yes"/>
      <point x="245" y="63" type="line" smooth="yes"/>
      <point x="197" y="63"/>
      <point x="168" y="83"/>
      <point x="168" y="124" type="curve" smooth="yes"/>
      <point x="168" y="131"/>
      <point x="168" y="141"/>
    </contour>
    <contour>
      <point x="93" y="144" type="line" smooth="yes"/>
      <point x="89" y="123"/>
      <point x="89" y="112"/>
      <point x="89" y="103" type="curve" smooth="yes"/>
      <point x="89" y="30"/>
      <point x="140" y="-2"/>
      <point x="219" y="-2" type="curve" smooth="yes"/>
      <point x="335" y="-2" type="line" smooth="yes"/>
      <point x="424" y="-2"/>
      <point x="487" y="42"/>
      <point x="502" y="134" type="curve" smooth="yes"/>
      <point x="547" y="420" type="line" smooth="yes"/>
      <point x="550" y="438"/>
      <point x="551" y="449"/>
      <point x="551" y="459" type="curve" smooth="yes"/>
      <point x="550" y="523"/>
      <point x="511" y="565"/>
      <point x="426" y="565" type="curve" smooth="yes"/>
      <point x="309" y="565" type="line" smooth="yes"/>
      <point x="220" y="565"/>
      <point x="151" y="517"/>
      <point x="137" y="425" type="curve" smooth="yes"/>
    </contour>
  </outline>
</glyph>
